<svg width="1132" viewBox="0 0 1132 804" xmlns="http://www.w3.org/2000/svg" height="804" xmlns:xlink="http://www.w3.org/1999/xlink" xmlns:ev="http://www.w3.org/2001/xml-events"><defs/><g transform="translate(5.5,5.5)" id="page1"><rect width="1123" height="794" fill="none" y="0" x="0"/><g transform="translate(487.744000,132.124500)" id="shape1"><path fill="#ff9189" stroke-width="1" d="M73.9,147.9L159.4,147.9L159.4,147.9C200.3,147.9,233.4,114.8,233.4,73.9C233.4,33.1,200.3,.0,159.4,.0L73.9,.0L73.9,.0C33.1,.0,.0,33.1,.0,73.9C.0,114.8,33.1,147.9,73.9,147.9z" stroke="#101843" fill-rule="nonzero"/><text xml:space="preserve" style="fill:#191919;font-family:Times New Roman,PingFang SC,Mircrosoft YaHei,Arial;font-size:14.00pt"><tspan y="36.0" x="58.7" style="font-family:Times New Roman,PingFang SC,Mircrosoft YaHei,Arial">#Each time you </tspan><tspan y="58.0" x="53.2" style="font-family:Times New Roman,PingFang SC,Mircrosoft YaHei,Arial">complete a lap, it </tspan><tspan y="80.0" x="84.7" style="font-family:Times New Roman,PingFang SC,Mircrosoft YaHei,Arial">will print </tspan><tspan y="102.0" x="43.2" style="font-family:Times New Roman,PingFang SC,Mircrosoft YaHei,Arial">'Completed a lap of </tspan><tspan y="124.0" x="69.2" style="font-family:Times New Roman,PingFang SC,Mircrosoft YaHei,Arial">pony riding!'</tspan></text></g><g transform="translate(421.081000,326.191500)" id="shape2"><path fill="#fdff85" stroke-width="1" d="M183.3,130.9L366.7,65.4L183.3,.0L.0,65.4L183.3,130.9z" stroke="#101843" fill-rule="nonzero"/><text xml:space="preserve" style="fill:#191919;font-family:Times New Roman,PingFang SC,Mircrosoft YaHei,Arial;font-size:14.00pt"><tspan y="71.4" x="74.8" style="font-family:Times New Roman,PingFang SC,Mircrosoft YaHei,Arial">for lap_number in range(0,3):</tspan></text></g><g transform="translate(421.081000,558.145000)" id="shape3"><path fill="#90d6ab" stroke-width="1" d="M366.7,87.0L366.7,7.0C366.7,3.1,363.6,.0,359.7,.0L7.0,.0C3.1,.0,.0,3.1,.0,7.0L.0,87.0C.0,90.8,3.1,94.0,7.0,94.0L359.7,94.0C363.6,94.0,366.7,90.8,366.7,87.0z" stroke="#000000" fill-rule="nonzero"/><text xml:space="preserve" style="fill:#191919;font-family:Times New Roman,PingFang SC,Mircrosoft YaHei,Arial;font-size:14.00pt"><tspan y="53.0" x="32.8" style="font-family:Times New Roman,PingFang SC,Mircrosoft YaHei,Arial">print(''Completed a lap of pony riding!'')</tspan></text></g><g transform="translate(604.425000,280.000000)" id="shape4"><path fill="none" stroke-width="1" d="M.0,.0L.0,40.2" stroke="#191919"/><path fill="#191919" stroke-width="1" d="M3.0,40.2L.0,46.2L-3.0,40.2L3.0,40.2" stroke-linecap="round" stroke="#191919"/></g><g transform="translate(604.425000,457.067000)" id="shape5"><path fill="none" stroke-width="1" d="M.0,.0L.0,95.1" stroke="#000000"/><path fill="#000000" stroke-width="1" d="M3.0,95.1L.0,101.1L-3.0,95.1L3.0,95.1" stroke-linecap="round" stroke="#000000"/><rect width="34.0" height="22.0" fill="#ffffff" y="39.5" x="-16.0"/><text xml:space="preserve" style="fill:#191919;font-family:Times New Roman,PingFang SC,Mircrosoft YaHei,Arial;font-size:14.00pt"><tspan y="56.5" x="-16.0" style="font-family:Times New Roman,PingFang SC,Mircrosoft YaHei,Arial">True</tspan></text></g><g transform="translate(787.768000,605.130000)" id="shape6"><path fill="none" stroke-width="1" d="M.0,.0L121.6,.0L121.6,-213.5L6.0,-213.5" stroke="#191919"/><path fill="#191919" stroke-width="1" d="M6.0,-210.5L.0,-213.5L6.0,-216.5L6.0,-210.5" stroke-linecap="round" stroke="#191919"/><rect width="185.0" height="32.0" fill="#ffffff" y="-130.1" x="30.1"/><text xml:space="preserve" style="fill:#191919;font-family:Times New Roman,PingFang SC,Mircrosoft YaHei,Arial;font-size:20.00pt;font-weight:bold"><tspan y="-104.1" x="30.1" style="font-family:Times New Roman,PingFang SC,Mircrosoft YaHei,Arial">lap_number + 1</tspan></text></g><g transform="translate(421.081000,391.629000)" id="shape7"><path fill="none" stroke-width="1" d="M.0,.0L-123.1,.0" stroke="#191919"/><path fill="#191919" stroke-width="1" d="M-123.1,3.0L-129.1,.0L-123.1,-3.0L-123.1,3.0" stroke-linecap="round" stroke="#191919"/><rect width="39.0" height="22.0" fill="#ffffff" y="-11.0" x="-91.8"/><text xml:space="preserve" style="fill:#191919;font-family:Times New Roman,PingFang SC,Mircrosoft YaHei,Arial;font-size:14.00pt"><tspan y="6.0" x="-91.8" style="font-family:Times New Roman,PingFang SC,Mircrosoft YaHei,Arial">False</tspan></text></g><g transform="translate(192.000000,369.629000)" id="shape8"><path fill="#ff9189" stroke-width="1" d="M22.0,44.0L78.0,44.0L78.0,44.0C90.2,44.0,100.0,34.2,100.0,22.0C100.0,9.8,90.2,.0,78.0,.0L22.0,.0L22.0,.0C9.8,.0,.0,9.8,.0,22.0C.0,34.2,9.8,44.0,22.0,44.0z" stroke="#101843" fill-rule="nonzero"/><text xml:space="preserve" style="fill:#191919;font-family:Times New Roman,PingFang SC,Mircrosoft YaHei,Arial;font-size:14.00pt"><tspan y="28.0" x="35.0" style="font-family:Times New Roman,PingFang SC,Mircrosoft YaHei,Arial">End</tspan></text></g></g></svg>