<svg width="1132" viewBox="0 0 1132 804" xmlns="http://www.w3.org/2000/svg" height="804" xmlns:xlink="http://www.w3.org/1999/xlink" xmlns:ev="http://www.w3.org/2001/xml-events"><defs/><g transform="translate(5.5,5.5)" id="page1"><rect width="1123" height="794" fill="none" y="0" x="0"/><g transform="translate(417.735000,120.999500)" id="shape1"><path fill="#ff9189" stroke-width="1" d="M66.7,133.4L258.4,133.4L258.4,133.4C295.2,133.4,325.1,103.5,325.1,66.7C325.1,29.9,295.2,.0,258.4,.0L66.7,.0L66.7,.0C29.9,.0,.0,29.9,.0,66.7C.0,103.5,29.9,133.4,66.7,133.4z" stroke="#101843" fill-rule="nonzero"/><text xml:space="preserve" style="fill:#191919;font-family:Times New Roman,PingFang SC,Mircrosoft YaHei,Arial;font-size:14.00pt"><tspan y="40.0" x="41.0" style="font-family:Times New Roman,PingFang SC,Mircrosoft YaHei,Arial">#Record the progress of feeding </tspan><tspan y="62.0" x="59.0" style="font-family:Times New Roman,PingFang SC,Mircrosoft YaHei,Arial">the goats five cups of food.</tspan><tspan y="106.0" x="100.5" style="font-family:Times New Roman,PingFang SC,Mircrosoft YaHei,Arial">cup_number = 0</tspan></text></g><g transform="translate(396.916000,330.912500)" id="shape2"><path fill="#fdff85" stroke-width="1" d="M183.3,131.9L366.7,65.9L183.3,.0L.0,65.9L183.3,131.9z" stroke="#101843" fill-rule="nonzero"/><text xml:space="preserve" style="fill:#191919;font-family:Times New Roman,PingFang SC,Mircrosoft YaHei,Arial;font-size:14.00pt"><tspan y="71.9" x="97.8" style="font-family:Times New Roman,PingFang SC,Mircrosoft YaHei,Arial">while cup_number &lt; 5:</tspan></text></g><g transform="translate(441.666000,552.366000)" id="shape3"><path fill="#90d6ab" stroke-width="1" d="M277.2,87.0L277.2,7.0C277.2,3.1,274.1,.0,270.2,.0L7.0,.0C3.1,.0,.0,3.1,.0,7.0L.0,87.0C.0,90.8,3.1,94.0,7.0,94.0L270.2,94.0C274.1,94.0,277.2,90.8,277.2,87.0z" stroke="#000000" fill-rule="nonzero"/><text xml:space="preserve" style="fill:#191919;font-family:Times New Roman,PingFang SC,Mircrosoft YaHei,Arial;font-size:14.00pt"><tspan y="42.0" x="23.6" style="font-family:Times New Roman,PingFang SC,Mircrosoft YaHei,Arial">print(''Fed baby goats a cup!'')</tspan><tspan y="64.0" x="19.1" style="font-family:Times New Roman,PingFang SC,Mircrosoft YaHei,Arial">cup_number = cup_number + 1</tspan></text></g><g transform="translate(580.260000,254.385000)" id="shape4"><path fill="none" stroke-width="1" d="M.0,.0L.0,70.5" stroke="#191919"/><path fill="#191919" stroke-width="1" d="M3.0,70.5L.0,76.5L-3.0,70.5L3.0,70.5" stroke-linecap="round" stroke="#191919"/></g><g transform="translate(580.260000,462.788000)" id="shape5"><path fill="none" stroke-width="1" d="M.0,.0L.0,83.6" stroke="#000000"/><path fill="#000000" stroke-width="1" d="M3.0,83.6L.0,89.6L-3.0,83.6L3.0,83.6" stroke-linecap="round" stroke="#000000"/><rect width="34.0" height="22.0" fill="#ffffff" y="33.8" x="-16.0"/><text xml:space="preserve" style="fill:#191919;font-family:Times New Roman,PingFang SC,Mircrosoft YaHei,Arial;font-size:14.00pt"><tspan y="50.8" x="-16.0" style="font-family:Times New Roman,PingFang SC,Mircrosoft YaHei,Arial">True</tspan></text></g><g transform="translate(718.853000,599.351000)" id="shape6"><path fill="none" stroke-width="1" d="M.0,.0L121.6,.0L121.6,-202.5L50.8,-202.5" stroke="#191919"/><path fill="#191919" stroke-width="1" d="M50.8,-199.5L44.8,-202.5L50.8,-205.5L50.8,-199.5" stroke-linecap="round" stroke="#191919"/></g><g transform="translate(396.916000,396.850000)" id="shape7"><path fill="none" stroke-width="1" d="M.0,.0L-120.8,.0" stroke="#191919"/><path fill="#191919" stroke-width="1" d="M-120.8,3.0L-126.8,.0L-120.8,-3.0L-120.8,3.0" stroke-linecap="round" stroke="#191919"/><rect width="39.0" height="22.0" fill="#ffffff" y="-11.0" x="-81.1"/><text xml:space="preserve" style="fill:#191919;font-family:Times New Roman,PingFang SC,Mircrosoft YaHei,Arial;font-size:14.00pt"><tspan y="6.0" x="-81.1" style="font-family:Times New Roman,PingFang SC,Mircrosoft YaHei,Arial">False</tspan></text></g><g transform="translate(170.084000,374.850000)" id="shape8"><path fill="#ff9189" stroke-width="1" d="M22.0,44.0L78.0,44.0L78.0,44.0C90.2,44.0,100.0,34.2,100.0,22.0C100.0,9.8,90.2,.0,78.0,.0L22.0,.0L22.0,.0C9.8,.0,.0,9.8,.0,22.0C.0,34.2,9.8,44.0,22.0,44.0z" stroke="#101843" fill-rule="nonzero"/><text xml:space="preserve" style="fill:#191919;font-family:Times New Roman,PingFang SC,Mircrosoft YaHei,Arial;font-size:14.00pt"><tspan y="28.0" x="35.0" style="font-family:Times New Roman,PingFang SC,Mircrosoft YaHei,Arial">End</tspan></text></g></g></svg>