<svg width="295" height="69" viewBox="0 0 295 69" fill="none" xmlns="http://www.w3.org/2000/svg">
<path d="M2.20739 5.09091H5.23295V16.5398C5.23295 17.3826 5.06723 18.0644 4.7358 18.5852C4.40436 19.1061 3.9285 19.4872 3.30824 19.7287C2.69271 19.9702 1.95644 20.0909 1.09943 20.0909C0.995265 20.0909 0.895833 20.0885 0.801136 20.0838C0.701705 20.0838 0.597538 20.0814 0.488636 20.0767V17.7116C0.569129 17.7164 0.640152 17.7188 0.701705 17.7188C0.758523 17.7235 0.820076 17.7259 0.886364 17.7259C1.37405 17.7259 1.71496 17.6217 1.90909 17.4134C2.10795 17.2098 2.20739 16.902 2.20739 16.4901V5.09091ZM3.71307 3.68466C3.26799 3.68466 2.88447 3.53551 2.5625 3.23722C2.24053 2.93419 2.07955 2.57197 2.07955 2.15057C2.07955 1.7339 2.24053 1.37642 2.5625 1.07812C2.88447 0.775094 3.26799 0.623579 3.71307 0.623579C4.16761 0.623579 4.5535 0.775094 4.87074 1.07812C5.19271 1.37642 5.35369 1.7339 5.35369 2.15057C5.35369 2.57197 5.19271 2.93419 4.87074 3.23722C4.5535 3.53551 4.16761 3.68466 3.71307 3.68466ZM12.6282 16.2131C11.506 16.2131 10.5401 15.9858 9.73047 15.5312C8.92554 15.072 8.30528 14.4233 7.86967 13.5852C7.43407 12.7424 7.21626 11.7457 7.21626 10.5952C7.21626 9.47301 7.43407 8.48816 7.86967 7.64062C8.30528 6.79309 8.91844 6.13258 9.70916 5.65909C10.5046 5.18561 11.4374 4.94886 12.5075 4.94886C13.2272 4.94886 13.8971 5.06487 14.5174 5.29688C15.1424 5.52415 15.6869 5.86742 16.1509 6.3267C16.6197 6.78598 16.9843 7.36364 17.2447 8.05966C17.5051 8.75095 17.6353 9.56061 17.6353 10.4886V11.3196H8.42365V9.4446H14.7873C14.7873 9.009 14.6926 8.62311 14.5032 8.28693C14.3138 7.95076 14.051 7.68797 13.7148 7.49858C13.3834 7.30445 12.9975 7.20739 12.5572 7.20739C12.0979 7.20739 11.6907 7.31392 11.3356 7.52699C10.9852 7.73532 10.7106 8.01705 10.5117 8.37216C10.3129 8.72254 10.2111 9.11316 10.2063 9.54403V11.3267C10.2063 11.8665 10.3058 12.3329 10.5046 12.7259C10.7082 13.1188 10.9947 13.4219 11.364 13.6349C11.7333 13.848 12.1713 13.9545 12.6779 13.9545C13.0141 13.9545 13.3219 13.9072 13.6012 13.8125C13.8806 13.7178 14.1197 13.5758 14.3185 13.3864C14.5174 13.197 14.6689 12.965 14.7731 12.6903L17.5714 12.875C17.4293 13.5473 17.1381 14.1345 16.6978 14.6364C16.2622 15.1335 15.6987 15.5218 15.0075 15.8011C14.3209 16.0758 13.5278 16.2131 12.6282 16.2131ZM19.6097 16V5.09091H22.543V6.99432H22.6566C22.8555 6.31723 23.1893 5.80587 23.658 5.46023C24.1268 5.10985 24.6665 4.93466 25.2773 4.93466C25.4289 4.93466 25.5922 4.94413 25.7674 4.96307C25.9426 4.98201 26.0965 5.00805 26.229 5.04119V7.72585C26.087 7.68324 25.8905 7.64536 25.6396 7.61222C25.3886 7.57907 25.159 7.5625 24.9506 7.5625C24.5056 7.5625 24.1078 7.65956 23.7575 7.85369C23.4118 8.04309 23.1372 8.30824 22.9336 8.64915C22.7347 8.99006 22.6353 9.38305 22.6353 9.82812V16H19.6097ZM36.87 8.2017L34.1001 8.37216C34.0528 8.13542 33.951 7.92235 33.7947 7.73295C33.6385 7.53883 33.4325 7.38494 33.1768 7.27131C32.9259 7.15294 32.6252 7.09375 32.2749 7.09375C31.8061 7.09375 31.4107 7.19318 31.0888 7.39205C30.7668 7.58617 30.6058 7.84659 30.6058 8.1733C30.6058 8.43371 30.71 8.65388 30.9183 8.83381C31.1267 9.01373 31.4841 9.15814 31.9908 9.26705L33.9652 9.66477C35.0258 9.88258 35.8165 10.233 36.3374 10.7159C36.8582 11.1989 37.1186 11.8333 37.1186 12.6193C37.1186 13.3343 36.9079 13.9616 36.4865 14.5014C36.0698 15.0412 35.4969 15.4626 34.7678 15.7656C34.0433 16.0639 33.2076 16.2131 32.2607 16.2131C30.8165 16.2131 29.666 15.9124 28.8089 15.3111C27.9567 14.705 27.4571 13.8812 27.3104 12.8395L30.2862 12.6832C30.3762 13.1236 30.594 13.4598 30.9396 13.6918C31.2853 13.919 31.728 14.0327 32.2678 14.0327C32.7981 14.0327 33.2242 13.9309 33.5462 13.7273C33.8729 13.5189 34.0386 13.2514 34.0433 12.9247C34.0386 12.6501 33.9226 12.4252 33.6953 12.25C33.468 12.0701 33.1177 11.9328 32.6442 11.8381L30.755 11.4616C29.6896 11.2486 28.8965 10.8793 28.3757 10.3537C27.8596 9.82812 27.6016 9.15814 27.6016 8.34375C27.6016 7.64299 27.791 7.0393 28.1697 6.53267C28.5533 6.02604 29.0907 5.63542 29.782 5.3608C30.478 5.08617 31.2924 4.94886 32.2251 4.94886C33.603 4.94886 34.6873 5.24006 35.478 5.82244C36.2734 6.40483 36.7375 7.19792 36.87 8.2017ZM43.9954 16.2131C42.8732 16.2131 41.9073 15.9858 41.0977 15.5312C40.2927 15.072 39.6725 14.4233 39.2369 13.5852C38.8013 12.7424 38.5835 11.7457 38.5835 10.5952C38.5835 9.47301 38.8013 8.48816 39.2369 7.64062C39.6725 6.79309 40.2856 6.13258 41.0763 5.65909C41.8718 5.18561 42.8046 4.94886 43.8746 4.94886C44.5943 4.94886 45.2643 5.06487 45.8846 5.29688C46.5096 5.52415 47.0541 5.86742 47.5181 6.3267C47.9869 6.78598 48.3514 7.36364 48.6119 8.05966C48.8723 8.75095 49.0025 9.56061 49.0025 10.4886V11.3196H39.7908V9.4446H46.1545C46.1545 9.009 46.0598 8.62311 45.8704 8.28693C45.681 7.95076 45.4182 7.68797 45.082 7.49858C44.7506 7.30445 44.3647 7.20739 43.9244 7.20739C43.4651 7.20739 43.0579 7.31392 42.7028 7.52699C42.3524 7.73532 42.0778 8.01705 41.8789 8.37216C41.68 8.72254 41.5782 9.11316 41.5735 9.54403V11.3267C41.5735 11.8665 41.6729 12.3329 41.8718 12.7259C42.0754 13.1188 42.3619 13.4219 42.7312 13.6349C43.1005 13.848 43.5385 13.9545 44.0451 13.9545C44.3813 13.9545 44.689 13.9072 44.9684 13.8125C45.2478 13.7178 45.4869 13.5758 45.6857 13.3864C45.8846 13.197 46.0361 12.965 46.1403 12.6903L48.9386 12.875C48.7965 13.5473 48.5053 14.1345 48.065 14.6364C47.6294 15.1335 47.0659 15.5218 46.3746 15.8011C45.6881 16.0758 44.895 16.2131 43.9954 16.2131ZM52.5518 20.0909C52.1683 20.0909 51.8085 20.0601 51.4723 19.9986C51.1409 19.9418 50.8662 19.8684 50.6484 19.7784L51.3303 17.5199C51.6854 17.6288 52.005 17.688 52.2891 17.6974C52.5779 17.7069 52.8265 17.6406 53.0348 17.4986C53.2479 17.3565 53.4207 17.1151 53.5533 16.7741L53.7308 16.3125L49.8175 5.09091H52.9993L55.2578 13.1023H55.3714L57.6513 5.09091H60.8544L56.6143 17.179C56.4107 17.7661 56.1338 18.2775 55.7834 18.7131C55.4377 19.1534 54.9998 19.492 54.4695 19.7287C53.9392 19.9702 53.3 20.0909 52.5518 20.0909ZM69.1516 16V18.294H59.5991V16H69.1516ZM74.2955 9.69318V16H71.2699V5.09091H74.1534V7.01562H74.2812C74.5227 6.38116 74.9276 5.87926 75.4957 5.50994C76.0639 5.13589 76.7528 4.94886 77.5625 4.94886C78.3201 4.94886 78.9806 5.11458 79.544 5.44602C80.1075 5.77746 80.5455 6.25095 80.858 6.86648C81.1705 7.47727 81.3267 8.20644 81.3267 9.05398V16H78.3011V9.59375C78.3059 8.92614 78.1354 8.4053 77.7898 8.03125C77.4441 7.65246 76.9683 7.46307 76.3622 7.46307C75.955 7.46307 75.5952 7.55066 75.2827 7.72585C74.9749 7.90104 74.7334 8.15672 74.5582 8.4929C74.3878 8.82434 74.3002 9.22443 74.2955 9.69318ZM90.707 11.3551V5.09091H93.7326V16H90.8278V14.0185H90.7141C90.4679 14.6577 90.0584 15.1714 89.4854 15.5597C88.9173 15.9479 88.2236 16.142 87.4045 16.142C86.6753 16.142 86.0337 15.9763 85.4798 15.6449C84.9258 15.3134 84.4925 14.8423 84.18 14.2315C83.8723 13.6207 83.716 12.8892 83.7113 12.0369V5.09091H86.7369V11.4972C86.7416 12.1411 86.9144 12.6501 87.2553 13.0241C87.5962 13.3982 88.0531 13.5852 88.6261 13.5852C88.9906 13.5852 89.3316 13.5024 89.6488 13.3366C89.966 13.1662 90.2217 12.9152 90.4158 12.5838C90.6147 12.2524 90.7118 11.8428 90.707 11.3551ZM96.1527 16V5.09091H99.0362V7.01562H99.1641C99.3913 6.37642 99.7701 5.87216 100.3 5.50284C100.831 5.13352 101.465 4.94886 102.204 4.94886C102.952 4.94886 103.589 5.13589 104.114 5.50994C104.64 5.87926 104.99 6.38116 105.165 7.01562H105.279C105.502 6.39062 105.904 5.8911 106.487 5.51705C107.074 5.13826 107.767 4.94886 108.567 4.94886C109.585 4.94886 110.412 5.2732 111.046 5.92188C111.685 6.56581 112.005 7.47964 112.005 8.66335V16H108.987V9.25994C108.987 8.65388 108.826 8.19934 108.504 7.89631C108.182 7.59328 107.779 7.44176 107.296 7.44176C106.747 7.44176 106.318 7.61695 106.011 7.96733C105.703 8.31297 105.549 8.76989 105.549 9.33807V16H102.616V9.19602C102.616 8.66098 102.462 8.23485 102.154 7.91761C101.851 7.60038 101.451 7.44176 100.954 7.44176C100.618 7.44176 100.315 7.52699 100.045 7.69744C99.7796 7.86316 99.5689 8.09754 99.4126 8.40057C99.2564 8.69886 99.1783 9.04924 99.1783 9.4517V16H96.1527ZM114.452 16V1.45455H117.477V6.9233H117.57C117.702 6.62973 117.894 6.33144 118.145 6.02841C118.401 5.72064 118.732 5.46496 119.139 5.26136C119.551 5.05303 120.063 4.94886 120.673 4.94886C121.469 4.94886 122.203 5.1572 122.875 5.57386C123.547 5.9858 124.085 6.60843 124.487 7.44176C124.89 8.27036 125.091 9.30966 125.091 10.5597C125.091 11.7765 124.894 12.804 124.501 13.642C124.113 14.4754 123.583 15.1075 122.911 15.5384C122.243 15.9645 121.495 16.1776 120.666 16.1776C120.079 16.1776 119.58 16.0805 119.168 15.8864C118.76 15.6922 118.427 15.4484 118.166 15.1548C117.906 14.8565 117.707 14.5559 117.57 14.2528H117.435V16H114.452ZM117.413 10.5455C117.413 11.1941 117.503 11.7599 117.683 12.2429C117.863 12.7259 118.124 13.1023 118.464 13.3722C118.805 13.6373 119.22 13.7699 119.707 13.7699C120.2 13.7699 120.616 13.6349 120.957 13.3651C121.298 13.0904 121.556 12.7116 121.732 12.2287C121.911 11.741 122.001 11.1799 122.001 10.5455C122.001 9.91572 121.914 9.36174 121.739 8.88352C121.563 8.4053 121.305 8.03125 120.964 7.76136C120.624 7.49148 120.205 7.35653 119.707 7.35653C119.215 7.35653 118.798 7.48674 118.457 7.74716C118.121 8.00758 117.863 8.37689 117.683 8.85511C117.503 9.33333 117.413 9.89678 117.413 10.5455ZM132.081 16.2131C130.959 16.2131 129.993 15.9858 129.184 15.5312C128.379 15.072 127.758 14.4233 127.323 13.5852C126.887 12.7424 126.669 11.7457 126.669 10.5952C126.669 9.47301 126.887 8.48816 127.323 7.64062C127.758 6.79309 128.372 6.13258 129.162 5.65909C129.958 5.18561 130.891 4.94886 131.961 4.94886C132.68 4.94886 133.35 5.06487 133.971 5.29688C134.596 5.52415 135.14 5.86742 135.604 6.3267C136.073 6.78598 136.437 7.36364 136.698 8.05966C136.958 8.75095 137.088 9.56061 137.088 10.4886V11.3196H127.877V9.4446H134.24C134.24 9.009 134.146 8.62311 133.956 8.28693C133.767 7.95076 133.504 7.68797 133.168 7.49858C132.837 7.30445 132.451 7.20739 132.01 7.20739C131.551 7.20739 131.144 7.31392 130.789 7.52699C130.438 7.73532 130.164 8.01705 129.965 8.37216C129.766 8.72254 129.664 9.11316 129.659 9.54403V11.3267C129.659 11.8665 129.759 12.3329 129.958 12.7259C130.161 13.1188 130.448 13.4219 130.817 13.6349C131.186 13.848 131.624 13.9545 132.131 13.9545C132.467 13.9545 132.775 13.9072 133.054 13.8125C133.334 13.7178 133.573 13.5758 133.772 13.3864C133.971 13.197 134.122 12.965 134.226 12.6903L137.025 12.875C136.882 13.5473 136.591 14.1345 136.151 14.6364C135.715 15.1335 135.152 15.5218 134.461 15.8011C133.774 16.0758 132.981 16.2131 132.081 16.2131ZM139.063 16V5.09091H141.996V6.99432H142.11C142.309 6.31723 142.642 5.80587 143.111 5.46023C143.58 5.10985 144.12 4.93466 144.73 4.93466C144.882 4.93466 145.045 4.94413 145.221 4.96307C145.396 4.98201 145.55 5.00805 145.682 5.04119V7.72585C145.54 7.68324 145.344 7.64536 145.093 7.61222C144.842 7.57907 144.612 7.5625 144.404 7.5625C143.959 7.5625 143.561 7.65956 143.211 7.85369C142.865 8.04309 142.59 8.30824 142.387 8.64915C142.188 8.99006 142.088 9.38305 142.088 9.82812V16H139.063ZM152.557 7.63352V5.10511H162.365V7.63352H152.557ZM152.557 12.3494V9.82102H162.365V12.3494H152.557ZM195.876 15.8864L188.717 8.72727L195.876 1.56818L197.523 3.2017L193.198 7.52699H211.06V9.92756H193.198L197.523 14.2457L195.876 15.8864ZM222.527 1.45455V16H219.452V1.45455H222.527ZM228.026 9.69318V16H225V5.09091H227.884V7.01562H228.012C228.253 6.38116 228.658 5.87926 229.226 5.50994C229.794 5.13589 230.483 4.94886 231.293 4.94886C232.051 4.94886 232.711 5.11458 233.275 5.44602C233.838 5.77746 234.276 6.25095 234.588 6.86648C234.901 7.47727 235.057 8.20644 235.057 9.05398V16H232.032V9.59375C232.036 8.92614 231.866 8.4053 231.52 8.03125C231.175 7.65246 230.699 7.46307 230.093 7.46307C229.685 7.46307 229.326 7.55066 229.013 7.72585C228.705 7.90104 228.464 8.15672 228.289 8.4929C228.118 8.82434 228.031 9.22443 228.026 9.69318ZM243.244 5.09091V7.36364H236.675V5.09091H243.244ZM238.166 2.47727H241.192V12.6477C241.192 12.9271 241.234 13.1449 241.32 13.3011C241.405 13.4527 241.523 13.5592 241.675 13.6207C241.831 13.6823 242.011 13.7131 242.214 13.7131C242.357 13.7131 242.499 13.7012 242.641 13.6776C242.783 13.6491 242.892 13.6278 242.967 13.6136L243.443 15.8651C243.292 15.9124 243.079 15.9669 242.804 16.0284C242.529 16.0947 242.196 16.1349 241.803 16.1491C241.073 16.1776 240.434 16.0805 239.885 15.858C239.34 15.6354 238.917 15.2898 238.614 14.821C238.311 14.3523 238.161 13.7604 238.166 13.0455V2.47727ZM250.07 16.2131C248.947 16.2131 247.982 15.9858 247.172 15.5312C246.367 15.072 245.747 14.4233 245.311 13.5852C244.875 12.7424 244.658 11.7457 244.658 10.5952C244.658 9.47301 244.875 8.48816 245.311 7.64062C245.747 6.79309 246.36 6.13258 247.151 5.65909C247.946 5.18561 248.879 4.94886 249.949 4.94886C250.669 4.94886 251.339 5.06487 251.959 5.29688C252.584 5.52415 253.128 5.86742 253.592 6.3267C254.061 6.78598 254.426 7.36364 254.686 8.05966C254.946 8.75095 255.077 9.56061 255.077 10.4886V11.3196H245.865V9.4446H252.229C252.229 9.009 252.134 8.62311 251.945 8.28693C251.755 7.95076 251.492 7.68797 251.156 7.49858C250.825 7.30445 250.439 7.20739 249.999 7.20739C249.539 7.20739 249.132 7.31392 248.777 7.52699C248.427 7.73532 248.152 8.01705 247.953 8.37216C247.754 8.72254 247.652 9.11316 247.648 9.54403V11.3267C247.648 11.8665 247.747 12.3329 247.946 12.7259C248.15 13.1188 248.436 13.4219 248.805 13.6349C249.175 13.848 249.613 13.9545 250.119 13.9545C250.455 13.9545 250.763 13.9072 251.043 13.8125C251.322 13.7178 251.561 13.5758 251.76 13.3864C251.959 13.197 252.11 12.965 252.214 12.6903L255.013 12.875C254.871 13.5473 254.58 14.1345 254.139 14.6364C253.704 15.1335 253.14 15.5218 252.449 15.8011C251.762 16.0758 250.969 16.2131 250.07 16.2131ZM261.966 20.3182C260.986 20.3182 260.145 20.1832 259.445 19.9134C258.749 19.6482 258.195 19.286 257.783 18.8267C257.371 18.3674 257.103 17.8513 256.98 17.2784L259.778 16.902C259.864 17.1198 259.999 17.3234 260.183 17.5128C260.368 17.7022 260.612 17.8537 260.915 17.9673C261.223 18.0857 261.597 18.1449 262.037 18.1449C262.695 18.1449 263.237 17.9839 263.663 17.6619C264.094 17.3447 264.31 16.812 264.31 16.0639V14.0682H264.182C264.049 14.3712 263.85 14.6577 263.585 14.9276C263.32 15.1974 262.979 15.4176 262.562 15.5881C262.146 15.7585 261.649 15.8438 261.071 15.8438C260.252 15.8438 259.506 15.6544 258.834 15.2756C258.166 14.892 257.634 14.3073 257.236 13.5213C256.843 12.7306 256.646 11.7315 256.646 10.5241C256.646 9.28835 256.848 8.25616 257.25 7.42756C257.652 6.59896 258.188 5.97869 258.855 5.56676C259.527 5.15483 260.264 4.94886 261.064 4.94886C261.675 4.94886 262.186 5.05303 262.598 5.26136C263.01 5.46496 263.341 5.72064 263.592 6.02841C263.848 6.33144 264.045 6.62973 264.182 6.9233H264.295V5.09091H267.3V16.1065C267.3 17.0346 267.072 17.8111 266.618 18.4361C266.163 19.0611 265.534 19.5298 264.729 19.8423C263.929 20.1596 263.008 20.3182 261.966 20.3182ZM262.03 13.571C262.518 13.571 262.929 13.4503 263.266 13.2088C263.607 12.9626 263.867 12.6122 264.047 12.1577C264.232 11.6984 264.324 11.1491 264.324 10.5099C264.324 9.87074 264.234 9.31676 264.054 8.84801C263.874 8.37453 263.614 8.00758 263.273 7.74716C262.932 7.48674 262.518 7.35653 262.03 7.35653C261.533 7.35653 261.114 7.49148 260.773 7.76136C260.432 8.02651 260.174 8.39583 259.999 8.86932C259.823 9.3428 259.736 9.88968 259.736 10.5099C259.736 11.1397 259.823 11.6842 259.999 12.1435C260.179 12.598 260.437 12.9508 260.773 13.2017C261.114 13.4479 261.533 13.571 262.03 13.571ZM274.679 16.2131C273.557 16.2131 272.591 15.9858 271.781 15.5312C270.976 15.072 270.356 14.4233 269.92 13.5852C269.485 12.7424 269.267 11.7457 269.267 10.5952C269.267 9.47301 269.485 8.48816 269.92 7.64062C270.356 6.79309 270.969 6.13258 271.76 5.65909C272.555 5.18561 273.488 4.94886 274.558 4.94886C275.278 4.94886 275.948 5.06487 276.568 5.29688C277.193 5.52415 277.738 5.86742 278.202 6.3267C278.67 6.78598 279.035 7.36364 279.295 8.05966C279.556 8.75095 279.686 9.56061 279.686 10.4886V11.3196H270.474V9.4446H276.838C276.838 9.009 276.743 8.62311 276.554 8.28693C276.365 7.95076 276.102 7.68797 275.766 7.49858C275.434 7.30445 275.048 7.20739 274.608 7.20739C274.149 7.20739 273.741 7.31392 273.386 7.52699C273.036 7.73532 272.761 8.01705 272.562 8.37216C272.364 8.72254 272.262 9.11316 272.257 9.54403V11.3267C272.257 11.8665 272.357 12.3329 272.555 12.7259C272.759 13.1188 273.045 13.4219 273.415 13.6349C273.784 13.848 274.222 13.9545 274.729 13.9545C275.065 13.9545 275.373 13.9072 275.652 13.8125C275.931 13.7178 276.17 13.5758 276.369 13.3864C276.568 13.197 276.72 12.965 276.824 12.6903L279.622 12.875C279.48 13.5473 279.189 14.1345 278.749 14.6364C278.313 15.1335 277.75 15.5218 277.058 15.8011C276.372 16.0758 275.579 16.2131 274.679 16.2131ZM281.661 16V5.09091H284.594V6.99432H284.707C284.906 6.31723 285.24 5.80587 285.709 5.46023C286.178 5.10985 286.717 4.93466 287.328 4.93466C287.48 4.93466 287.643 4.94413 287.818 4.96307C287.993 4.98201 288.147 5.00805 288.28 5.04119V7.72585C288.138 7.68324 287.941 7.64536 287.69 7.61222C287.439 7.57907 287.21 7.5625 287.001 7.5625C286.556 7.5625 286.159 7.65956 285.808 7.85369C285.463 8.04309 285.188 8.30824 284.984 8.64915C284.786 8.99006 284.686 9.38305 284.686 9.82812V16H281.661ZM11.2841 32.2017L8.5142 32.3722C8.46686 32.1354 8.36506 31.9223 8.20881 31.733C8.05256 31.5388 7.84659 31.3849 7.59091 31.2713C7.33996 31.1529 7.0393 31.0938 6.68892 31.0938C6.22017 31.0938 5.82481 31.1932 5.50284 31.392C5.18087 31.5862 5.01989 31.8466 5.01989 32.1733C5.01989 32.4337 5.12405 32.6539 5.33239 32.8338C5.54072 33.0137 5.8982 33.1581 6.40483 33.267L8.37926 33.6648C9.43987 33.8826 10.2306 34.233 10.7514 34.7159C11.2723 35.1989 11.5327 35.8333 11.5327 36.6193C11.5327 37.3343 11.322 37.9616 10.9006 38.5014C10.4839 39.0412 9.91099 39.4626 9.18182 39.7656C8.45739 40.0639 7.62169 40.2131 6.67472 40.2131C5.23059 40.2131 4.08002 39.9124 3.22301 39.3111C2.37074 38.705 1.87121 37.8812 1.72443 36.8395L4.70028 36.6832C4.79025 37.1236 5.00805 37.4598 5.35369 37.6918C5.69934 37.919 6.14205 38.0327 6.68182 38.0327C7.21212 38.0327 7.63826 37.9309 7.96023 37.7273C8.28693 37.5189 8.45265 37.2514 8.45739 36.9247C8.45265 36.6501 8.33665 36.4252 8.10938 36.25C7.8821 36.0701 7.53172 35.9328 7.05824 35.8381L5.16903 35.4616C4.10369 35.2486 3.31061 34.8793 2.78977 34.3537C2.27367 33.8281 2.01562 33.1581 2.01562 32.3438C2.01562 31.643 2.20502 31.0393 2.58381 30.5327C2.96733 30.026 3.50473 29.6354 4.19602 29.3608C4.89205 29.0862 5.70644 28.9489 6.6392 28.9489C8.01705 28.9489 9.10133 29.2401 9.89205 29.8224C10.6875 30.4048 11.1515 31.1979 11.2841 32.2017ZM16.1793 36.8608L16.1864 33.2315H16.6268L20.1211 29.0909H23.5941L18.8995 34.5739H18.1822L16.1793 36.8608ZM13.4379 40V25.4545H16.4634V40H13.4379ZM20.256 40L17.0458 35.2486L19.0629 33.1108L23.8001 40H20.256ZM27.1222 44.0909C26.7386 44.0909 26.3788 44.0601 26.0426 43.9986C25.7112 43.9418 25.4366 43.8684 25.2188 43.7784L25.9006 41.5199C26.2557 41.6288 26.5753 41.688 26.8594 41.6974C27.1482 41.7069 27.3968 41.6406 27.6051 41.4986C27.8182 41.3565 27.991 41.1151 28.1236 40.7741L28.3011 40.3125L24.3878 29.0909H27.5696L29.8281 37.1023H29.9418L32.2216 29.0909H35.4247L31.1847 41.179C30.9811 41.7661 30.7041 42.2775 30.3537 42.7131C30.008 43.1534 29.5701 43.492 29.0398 43.7287C28.5095 43.9702 27.8703 44.0909 27.1222 44.0909ZM43.7219 40V42.294H34.1694V40H43.7219ZM45.6058 40V29.0909H48.6314V40H45.6058ZM47.1257 27.6847C46.6759 27.6847 46.29 27.5355 45.968 27.2372C45.6508 26.9342 45.4922 26.572 45.4922 26.1506C45.4922 25.7339 45.6508 25.3764 45.968 25.0781C46.29 24.7751 46.6759 24.6236 47.1257 24.6236C47.5755 24.6236 47.959 24.7751 48.2763 25.0781C48.5982 25.3764 48.7592 25.7339 48.7592 26.1506C48.7592 26.572 48.5982 26.9342 48.2763 27.2372C47.959 27.5355 47.5755 27.6847 47.1257 27.6847ZM60.1317 32.2017L57.3619 32.3722C57.3145 32.1354 57.2127 31.9223 57.0565 31.733C56.9002 31.5388 56.6942 31.3849 56.4386 31.2713C56.1876 31.1529 55.887 31.0938 55.5366 31.0938C55.0678 31.0938 54.6725 31.1932 54.3505 31.392C54.0285 31.5862 53.8675 31.8466 53.8675 32.1733C53.8675 32.4337 53.9717 32.6539 54.18 32.8338C54.3884 33.0137 54.7459 33.1581 55.2525 33.267L57.2269 33.6648C58.2875 33.8826 59.0782 34.233 59.5991 34.7159C60.1199 35.1989 60.3803 35.8333 60.3803 36.6193C60.3803 37.3343 60.1696 37.9616 59.7482 38.5014C59.3316 39.0412 58.7586 39.4626 58.0295 39.7656C57.305 40.0639 56.4693 40.2131 55.5224 40.2131C54.0782 40.2131 52.9277 39.9124 52.0707 39.3111C51.2184 38.705 50.7189 37.8812 50.5721 36.8395L53.5479 36.6832C53.6379 37.1236 53.8557 37.4598 54.2013 37.6918C54.547 37.919 54.9897 38.0327 55.5295 38.0327C56.0598 38.0327 56.4859 37.9309 56.8079 37.7273C57.1346 37.5189 57.3003 37.2514 57.305 36.9247C57.3003 36.6501 57.1843 36.4252 56.957 36.25C56.7298 36.0701 56.3794 35.9328 55.9059 35.8381L54.0167 35.4616C52.9513 35.2486 52.1583 34.8793 51.6374 34.3537C51.1213 33.8281 50.8633 33.1581 50.8633 32.3438C50.8633 31.643 51.0527 31.0393 51.4315 30.5327C51.815 30.026 52.3524 29.6354 53.0437 29.3608C53.7397 29.0862 54.5541 28.9489 55.4869 28.9489C56.8647 28.9489 57.949 29.2401 58.7397 29.8224C59.5352 30.4048 59.9992 31.1979 60.1317 32.2017ZM70.6165 40V42.294H61.0639V40H70.6165ZM71.8736 40V25.4545H74.8991V30.9233H74.9915C75.1241 30.6297 75.3158 30.3314 75.5668 30.0284C75.8224 29.7206 76.1539 29.465 76.5611 29.2614C76.973 29.053 77.4844 28.9489 78.0952 28.9489C78.8906 28.9489 79.6245 29.1572 80.2969 29.5739C80.9692 29.9858 81.5066 30.6084 81.9091 31.4418C82.3116 32.2704 82.5128 33.3097 82.5128 34.5597C82.5128 35.7765 82.3163 36.804 81.9233 37.642C81.535 38.4754 81.0047 39.1075 80.3324 39.5384C79.6648 39.9645 78.9167 40.1776 78.0881 40.1776C77.5009 40.1776 77.0014 40.0805 76.5895 39.8864C76.1823 39.6922 75.8485 39.4484 75.5881 39.1548C75.3277 38.8565 75.1288 38.5559 74.9915 38.2528H74.8565V40H71.8736ZM74.8352 34.5455C74.8352 35.1941 74.9252 35.7599 75.1051 36.2429C75.285 36.7259 75.5455 37.1023 75.8864 37.3722C76.2273 37.6373 76.6416 37.7699 77.1293 37.7699C77.6217 37.7699 78.0384 37.6349 78.3793 37.3651C78.7202 37.0904 78.9782 36.7116 79.1534 36.2287C79.3333 35.741 79.4233 35.1799 79.4233 34.5455C79.4233 33.9157 79.3357 33.3617 79.1605 32.8835C78.9853 32.4053 78.7273 32.0312 78.3864 31.7614C78.0455 31.4915 77.6264 31.3565 77.1293 31.3565C76.6368 31.3565 76.2202 31.4867 75.8793 31.7472C75.5431 32.0076 75.285 32.3769 75.1051 32.8551C74.9252 33.3333 74.8352 33.8968 74.8352 34.5455ZM87.5572 25.4545V40H84.5316V25.4545H87.5572ZM96.9766 35.3551V29.0909H100.002V40H97.0973V38.0185H96.9837C96.7375 38.6577 96.3279 39.1714 95.755 39.5597C95.1868 39.9479 94.4931 40.142 93.674 40.142C92.9448 40.142 92.3033 39.9763 91.7493 39.6449C91.1953 39.3134 90.7621 38.8423 90.4496 38.2315C90.1418 37.6207 89.9856 36.8892 89.9808 36.0369V29.0909H93.0064V35.4972C93.0111 36.1411 93.1839 36.6501 93.5249 37.0241C93.8658 37.3982 94.3227 37.5852 94.8956 37.5852C95.2602 37.5852 95.6011 37.5024 95.9183 37.3366C96.2356 37.1662 96.4912 36.9152 96.6854 36.5838C96.8842 36.2524 96.9813 35.8428 96.9766 35.3551ZM107.394 40.2131C106.272 40.2131 105.306 39.9858 104.496 39.5312C103.691 39.072 103.071 38.4233 102.635 37.5852C102.2 36.7424 101.982 35.7457 101.982 34.5952C101.982 33.473 102.2 32.4882 102.635 31.6406C103.071 30.7931 103.684 30.1326 104.475 29.6591C105.27 29.1856 106.203 28.9489 107.273 28.9489C107.993 28.9489 108.663 29.0649 109.283 29.2969C109.908 29.5241 110.453 29.8674 110.917 30.3267C111.385 30.786 111.75 31.3636 112.01 32.0597C112.271 32.7509 112.401 33.5606 112.401 34.4886V35.3196H103.189V33.4446H109.553C109.553 33.009 109.458 32.6231 109.269 32.2869C109.079 31.9508 108.817 31.688 108.48 31.4986C108.149 31.3045 107.763 31.2074 107.323 31.2074C106.864 31.2074 106.456 31.3139 106.101 31.527C105.751 31.7353 105.476 32.017 105.277 32.3722C105.078 32.7225 104.977 33.1132 104.972 33.544V35.3267C104.972 35.8665 105.071 36.3329 105.27 36.7259C105.474 37.1188 105.76 37.4219 106.13 37.6349C106.499 37.848 106.937 37.9545 107.444 37.9545C107.78 37.9545 108.087 37.9072 108.367 37.8125C108.646 37.7178 108.885 37.5758 109.084 37.3864C109.283 37.197 109.435 36.965 109.539 36.6903L112.337 36.875C112.195 37.5473 111.904 38.1345 111.463 38.6364C111.028 39.1335 110.464 39.5218 109.773 39.8011C109.087 40.0758 108.293 40.2131 107.394 40.2131ZM119.686 31.6335V29.1051H129.494V31.6335H119.686ZM119.686 36.3494V33.821H129.494V36.3494H119.686ZM194.587 39.8864L187.428 32.7273L194.587 25.5682L196.234 27.2017L191.909 31.527H209.771V33.9276H191.909L196.234 38.2457L194.587 39.8864ZM218.163 40V25.4545H223.987C225.057 25.4545 225.949 25.6132 226.664 25.9304C227.379 26.2476 227.916 26.688 228.276 27.2514C228.636 27.8101 228.816 28.4541 228.816 29.1832C228.816 29.7514 228.702 30.2509 228.475 30.6818C228.248 31.108 227.935 31.4583 227.538 31.733C227.145 32.0028 226.695 32.1946 226.188 32.3082V32.4503C226.742 32.474 227.261 32.6302 227.744 32.919C228.231 33.2079 228.627 33.6127 228.93 34.1335C229.233 34.6496 229.384 35.2652 229.384 35.9801C229.384 36.7519 229.192 37.4408 228.809 38.0469C228.43 38.6482 227.869 39.1241 227.126 39.4744C226.382 39.8248 225.466 40 224.377 40H218.163ZM221.238 37.4858H223.745C224.602 37.4858 225.227 37.3224 225.62 36.9957C226.013 36.6643 226.21 36.224 226.21 35.6747C226.21 35.2723 226.112 34.9171 225.918 34.6094C225.724 34.3016 225.447 34.0601 225.087 33.8849C224.732 33.7098 224.308 33.6222 223.816 33.6222H221.238V37.4858ZM221.238 31.5412H223.518C223.939 31.5412 224.313 31.4678 224.64 31.321C224.971 31.1695 225.232 30.9564 225.421 30.6818C225.615 30.4072 225.712 30.0781 225.712 29.6946C225.712 29.169 225.525 28.7453 225.151 28.4233C224.782 28.1013 224.256 27.9403 223.575 27.9403H221.238V31.5412ZM236.257 40.2131C235.154 40.2131 234.2 39.9787 233.395 39.5099C232.595 39.0365 231.977 38.3783 231.542 37.5355C231.106 36.688 230.888 35.7055 230.888 34.5881C230.888 33.4612 231.106 32.4763 231.542 31.6335C231.977 30.786 232.595 30.1278 233.395 29.6591C234.2 29.1856 235.154 28.9489 236.257 28.9489C237.361 28.9489 238.312 29.1856 239.113 29.6591C239.917 30.1278 240.538 30.786 240.973 31.6335C241.409 32.4763 241.627 33.4612 241.627 34.5881C241.627 35.7055 241.409 36.688 240.973 37.5355C240.538 38.3783 239.917 39.0365 239.113 39.5099C238.312 39.9787 237.361 40.2131 236.257 40.2131ZM236.272 37.8693C236.774 37.8693 237.193 37.7273 237.529 37.4432C237.865 37.1544 238.118 36.7614 238.289 36.2642C238.464 35.767 238.551 35.2012 238.551 34.5668C238.551 33.9323 238.464 33.3665 238.289 32.8693C238.118 32.3722 237.865 31.9792 237.529 31.6903C237.193 31.4015 236.774 31.2571 236.272 31.2571C235.765 31.2571 235.339 31.4015 234.993 31.6903C234.652 31.9792 234.394 32.3722 234.219 32.8693C234.049 33.3665 233.963 33.9323 233.963 34.5668C233.963 35.2012 234.049 35.767 234.219 36.2642C234.394 36.7614 234.652 37.1544 234.993 37.4432C235.339 37.7273 235.765 37.8693 236.272 37.8693ZM248.523 40.2131C247.42 40.2131 246.466 39.9787 245.661 39.5099C244.861 39.0365 244.243 38.3783 243.807 37.5355C243.372 36.688 243.154 35.7055 243.154 34.5881C243.154 33.4612 243.372 32.4763 243.807 31.6335C244.243 30.786 244.861 30.1278 245.661 29.6591C246.466 29.1856 247.42 28.9489 248.523 28.9489C249.626 28.9489 250.578 29.1856 251.378 29.6591C252.183 30.1278 252.803 30.786 253.239 31.6335C253.675 32.4763 253.892 33.4612 253.892 34.5881C253.892 35.7055 253.675 36.688 253.239 37.5355C252.803 38.3783 252.183 39.0365 251.378 39.5099C250.578 39.9787 249.626 40.2131 248.523 40.2131ZM248.537 37.8693C249.039 37.8693 249.458 37.7273 249.794 37.4432C250.131 37.1544 250.384 36.7614 250.554 36.2642C250.73 35.767 250.817 35.2012 250.817 34.5668C250.817 33.9323 250.73 33.3665 250.554 32.8693C250.384 32.3722 250.131 31.9792 249.794 31.6903C249.458 31.4015 249.039 31.2571 248.537 31.2571C248.031 31.2571 247.605 31.4015 247.259 31.6903C246.918 31.9792 246.66 32.3722 246.485 32.8693C246.314 33.3665 246.229 33.9323 246.229 34.5668C246.229 35.2012 246.314 35.767 246.485 36.2642C246.66 36.7614 246.918 37.1544 247.259 37.4432C247.605 37.7273 248.031 37.8693 248.537 37.8693ZM258.885 25.4545V40H255.86V25.4545H258.885ZM266.281 40.2131C265.158 40.2131 264.192 39.9858 263.383 39.5312C262.578 39.072 261.958 38.4233 261.522 37.5852C261.086 36.7424 260.869 35.7457 260.869 34.5952C260.869 33.473 261.086 32.4882 261.522 31.6406C261.958 30.7931 262.571 30.1326 263.362 29.6591C264.157 29.1856 265.09 28.9489 266.16 28.9489C266.879 28.9489 267.549 29.0649 268.17 29.2969C268.795 29.5241 269.339 29.8674 269.803 30.3267C270.272 30.786 270.637 31.3636 270.897 32.0597C271.157 32.7509 271.288 33.5606 271.288 34.4886V35.3196H262.076V33.4446H268.44C268.44 33.009 268.345 32.6231 268.156 32.2869C267.966 31.9508 267.703 31.688 267.367 31.4986C267.036 31.3045 266.65 31.2074 266.21 31.2074C265.75 31.2074 265.343 31.3139 264.988 31.527C264.638 31.7353 264.363 32.017 264.164 32.3722C263.965 32.7225 263.863 33.1132 263.859 33.544V35.3267C263.859 35.8665 263.958 36.3329 264.157 36.7259C264.361 37.1188 264.647 37.4219 265.016 37.6349C265.386 37.848 265.824 37.9545 266.33 37.9545C266.666 37.9545 266.974 37.9072 267.254 37.8125C267.533 37.7178 267.772 37.5758 267.971 37.3864C268.17 37.197 268.321 36.965 268.425 36.6903L271.224 36.875C271.082 37.5473 270.79 38.1345 270.35 38.6364C269.915 39.1335 269.351 39.5218 268.66 39.8011C267.973 40.0758 267.18 40.2131 266.281 40.2131ZM276.373 40.206C275.677 40.206 275.057 40.0852 274.512 39.8438C273.968 39.5975 273.537 39.2353 273.219 38.7571C272.907 38.2741 272.751 37.6728 272.751 36.9531C272.751 36.3471 272.862 35.8381 273.085 35.4261C273.307 35.0142 273.61 34.6828 273.994 34.4318C274.377 34.1809 274.813 33.9915 275.3 33.8636C275.793 33.7358 276.309 33.6458 276.849 33.5938C277.483 33.5275 277.995 33.4659 278.383 33.4091C278.771 33.3475 279.053 33.2576 279.228 33.1392C279.403 33.0208 279.491 32.8456 279.491 32.6136V32.571C279.491 32.1212 279.349 31.7732 279.065 31.527C278.785 31.2808 278.388 31.1577 277.871 31.1577C277.327 31.1577 276.894 31.2784 276.572 31.5199C276.25 31.7566 276.037 32.0549 275.933 32.4148L273.134 32.1875C273.276 31.5246 273.556 30.9517 273.972 30.4688C274.389 29.9811 274.926 29.607 275.585 29.3466C276.247 29.0814 277.014 28.9489 277.886 28.9489C278.492 28.9489 279.072 29.0199 279.626 29.1619C280.184 29.304 280.679 29.5241 281.11 29.8224C281.546 30.1207 281.889 30.5043 282.14 30.973C282.391 31.437 282.516 31.9934 282.516 32.642V40H279.647V38.4872H279.562C279.387 38.8281 279.152 39.1288 278.859 39.3892C278.565 39.6449 278.212 39.8461 277.8 39.9929C277.388 40.1349 276.913 40.206 276.373 40.206ZM277.239 38.1179C277.684 38.1179 278.077 38.0303 278.418 37.8551C278.759 37.6752 279.027 37.4337 279.221 37.1307C279.415 36.8277 279.512 36.4844 279.512 36.1009V34.9432C279.417 35.0047 279.287 35.0616 279.121 35.1136C278.96 35.161 278.778 35.206 278.575 35.2486C278.371 35.2865 278.167 35.322 277.964 35.3551C277.76 35.3835 277.576 35.4096 277.41 35.4332C277.055 35.4853 276.745 35.5682 276.479 35.6818C276.214 35.7955 276.008 35.9493 275.862 36.1435C275.715 36.3329 275.641 36.5696 275.641 36.8537C275.641 37.2656 275.79 37.5805 276.089 37.7983C276.392 38.0114 276.775 38.1179 277.239 38.1179ZM287.889 33.6932V40H284.864V29.0909H287.747V31.0156H287.875C288.116 30.3812 288.521 29.8793 289.089 29.5099C289.658 29.1359 290.347 28.9489 291.156 28.9489C291.914 28.9489 292.574 29.1146 293.138 29.446C293.701 29.7775 294.139 30.2509 294.452 30.8665C294.764 31.4773 294.92 32.2064 294.92 33.054V40H291.895V33.5938C291.9 32.9261 291.729 32.4053 291.384 32.0312C291.038 31.6525 290.562 31.4631 289.956 31.4631C289.549 31.4631 289.189 31.5507 288.876 31.7259C288.569 31.901 288.327 32.1567 288.152 32.4929C287.982 32.8243 287.894 33.2244 287.889 33.6932ZM7.12216 68.3182C6.14205 68.3182 5.30161 68.1832 4.60085 67.9134C3.90483 67.6482 3.35085 67.286 2.93892 66.8267C2.52699 66.3674 2.25947 65.8513 2.13636 65.2784L4.93466 64.902C5.01989 65.1198 5.15483 65.3234 5.33949 65.5128C5.52415 65.7022 5.76799 65.8537 6.07102 65.9673C6.37879 66.0857 6.75284 66.1449 7.19318 66.1449C7.85133 66.1449 8.39347 65.9839 8.8196 65.6619C9.25047 65.3447 9.46591 64.812 9.46591 64.0639V62.0682H9.33807C9.20549 62.3712 9.00663 62.6577 8.74148 62.9276C8.47633 63.1974 8.13542 63.4176 7.71875 63.5881C7.30208 63.7585 6.80492 63.8438 6.22727 63.8438C5.40814 63.8438 4.66241 63.6544 3.99006 63.2756C3.32244 62.892 2.78977 62.3073 2.39205 61.5213C1.99905 60.7306 1.80256 59.7315 1.80256 58.5241C1.80256 57.2884 2.00379 56.2562 2.40625 55.4276C2.80871 54.599 3.34375 53.9787 4.01136 53.5668C4.68371 53.1548 5.41998 52.9489 6.22017 52.9489C6.83097 52.9489 7.34233 53.053 7.75426 53.2614C8.16619 53.465 8.49763 53.7206 8.74858 54.0284C9.00426 54.3314 9.20076 54.6297 9.33807 54.9233H9.4517V53.0909H12.456V64.1065C12.456 65.0346 12.2287 65.8111 11.7741 66.4361C11.3196 67.0611 10.6899 67.5298 9.88494 67.8423C9.08475 68.1596 8.16383 68.3182 7.12216 68.3182ZM7.18608 61.571C7.67377 61.571 8.0857 61.4503 8.42188 61.2088C8.76278 60.9626 9.0232 60.6122 9.20312 60.1577C9.38778 59.6984 9.48011 59.1491 9.48011 58.5099C9.48011 57.8707 9.39015 57.3168 9.21023 56.848C9.0303 56.3745 8.76989 56.0076 8.42898 55.7472C8.08807 55.4867 7.67377 55.3565 7.18608 55.3565C6.68892 55.3565 6.26989 55.4915 5.92898 55.7614C5.58807 56.0265 5.33002 56.3958 5.15483 56.8693C4.97964 57.3428 4.89205 57.8897 4.89205 58.5099C4.89205 59.1397 4.97964 59.6842 5.15483 60.1435C5.33475 60.598 5.5928 60.9508 5.92898 61.2017C6.26989 61.4479 6.68892 61.571 7.18608 61.571ZM14.8636 64V53.0909H17.7969V54.9943H17.9105C18.1094 54.3172 18.4432 53.8059 18.9119 53.4602C19.3807 53.1098 19.9205 52.9347 20.5312 52.9347C20.6828 52.9347 20.8461 52.9441 21.0213 52.9631C21.1965 52.982 21.3504 53.008 21.483 53.0412V55.7259C21.3409 55.6832 21.1444 55.6454 20.8935 55.6122C20.6425 55.5791 20.4129 55.5625 20.2045 55.5625C19.7595 55.5625 19.3617 55.6596 19.0114 55.8537C18.6657 56.0431 18.3911 56.3082 18.1875 56.6491C17.9886 56.9901 17.8892 57.383 17.8892 57.8281V64H14.8636ZM27.511 64.2131C26.3888 64.2131 25.4229 63.9858 24.6133 63.5312C23.8084 63.072 23.1881 62.4233 22.7525 61.5852C22.3169 60.7424 22.0991 59.7457 22.0991 58.5952C22.0991 57.473 22.3169 56.4882 22.7525 55.6406C23.1881 54.7931 23.8013 54.1326 24.592 53.6591C25.3874 53.1856 26.3202 52.9489 27.3903 52.9489C28.11 52.9489 28.7799 53.0649 29.4002 53.2969C30.0252 53.5241 30.5697 53.8674 31.0337 54.3267C31.5025 54.786 31.8671 55.3636 32.1275 56.0597C32.3879 56.7509 32.5181 57.5606 32.5181 58.4886V59.3196H23.3065V57.4446H29.6701C29.6701 57.009 29.5754 56.6231 29.386 56.2869C29.1966 55.9508 28.9338 55.688 28.5977 55.4986C28.2662 55.3045 27.8803 55.2074 27.44 55.2074C26.9807 55.2074 26.5735 55.3139 26.2184 55.527C25.868 55.7353 25.5934 56.017 25.3945 56.3722C25.1957 56.7225 25.0939 57.1132 25.0891 57.544V59.3267C25.0891 59.8665 25.1886 60.3329 25.3874 60.7259C25.591 61.1188 25.8775 61.4219 26.2468 61.6349C26.6161 61.848 27.0541 61.9545 27.5607 61.9545C27.8969 61.9545 28.2047 61.9072 28.484 61.8125C28.7634 61.7178 29.0025 61.5758 29.2013 61.3864C29.4002 61.197 29.5517 60.965 29.6559 60.6903L32.4542 60.875C32.3121 61.5473 32.021 62.1345 31.5806 62.6364C31.145 63.1335 30.5816 63.5218 29.8903 63.8011C29.2037 64.0758 28.4106 64.2131 27.511 64.2131ZM39.4641 64.2131C38.342 64.2131 37.3761 63.9858 36.5664 63.5312C35.7615 63.072 35.1412 62.4233 34.7056 61.5852C34.27 60.7424 34.0522 59.7457 34.0522 58.5952C34.0522 57.473 34.27 56.4882 34.7056 55.6406C35.1412 54.7931 35.7544 54.1326 36.5451 53.6591C37.3406 53.1856 38.2733 52.9489 39.3434 52.9489C40.0631 52.9489 40.7331 53.0649 41.3533 53.2969C41.9783 53.5241 42.5228 53.8674 42.9869 54.3267C43.4556 54.786 43.8202 55.3636 44.0806 56.0597C44.341 56.7509 44.4712 57.5606 44.4712 58.4886V59.3196H35.2596V57.4446H41.6232C41.6232 57.009 41.5285 56.6231 41.3391 56.2869C41.1497 55.9508 40.887 55.688 40.5508 55.4986C40.2193 55.3045 39.8335 55.2074 39.3931 55.2074C38.9338 55.2074 38.5266 55.3139 38.1715 55.527C37.8211 55.7353 37.5465 56.017 37.3477 56.3722C37.1488 56.7225 37.047 57.1132 37.0423 57.544V59.3267C37.0423 59.8665 37.1417 60.3329 37.3406 60.7259C37.5442 61.1188 37.8306 61.4219 38.1999 61.6349C38.5692 61.848 39.0072 61.9545 39.5138 61.9545C39.85 61.9545 40.1578 61.9072 40.4371 61.8125C40.7165 61.7178 40.9556 61.5758 41.1545 61.3864C41.3533 61.197 41.5049 60.965 41.609 60.6903L44.4073 60.875C44.2653 61.5473 43.9741 62.1345 43.5337 62.6364C43.0981 63.1335 42.5347 63.5218 41.8434 63.8011C41.1568 64.0758 40.3638 64.2131 39.4641 64.2131ZM52.2482 53.0909V55.3636H45.6786V53.0909H52.2482ZM47.1701 50.4773H50.1957V60.6477C50.1957 60.9271 50.2383 61.1449 50.3235 61.3011C50.4087 61.4527 50.5271 61.5592 50.6786 61.6207C50.8349 61.6823 51.0148 61.7131 51.2184 61.7131C51.3604 61.7131 51.5025 61.7012 51.6445 61.6776C51.7866 61.6491 51.8955 61.6278 51.9712 61.6136L52.4471 63.8651C52.2956 63.9124 52.0825 63.9669 51.8079 64.0284C51.5333 64.0947 51.1995 64.1349 50.8065 64.1491C50.0773 64.1776 49.4381 64.0805 48.8888 63.858C48.3443 63.6354 47.9206 63.2898 47.6175 62.821C47.3145 62.3523 47.1654 61.7604 47.1701 61.0455V50.4773ZM54.2191 64V53.0909H57.2447V64H54.2191ZM55.739 51.6847C55.2892 51.6847 54.9033 51.5355 54.5813 51.2372C54.2641 50.9342 54.1055 50.572 54.1055 50.1506C54.1055 49.7339 54.2641 49.3764 54.5813 49.0781C54.9033 48.7751 55.2892 48.6236 55.739 48.6236C56.1888 48.6236 56.5723 48.7751 56.8896 49.0781C57.2115 49.3764 57.3725 49.7339 57.3725 50.1506C57.3725 50.572 57.2115 50.9342 56.8896 51.2372C56.5723 51.5355 56.1888 51.6847 55.739 51.6847ZM62.6939 57.6932V64H59.6683V53.0909H62.5518V55.0156H62.6797C62.9212 54.3812 63.326 53.8793 63.8942 53.5099C64.4624 53.1359 65.1513 52.9489 65.9609 52.9489C66.7185 52.9489 67.379 53.1146 67.9425 53.446C68.5059 53.7775 68.9439 54.2509 69.2564 54.8665C69.5689 55.4773 69.7251 56.2064 69.7251 57.054V64H66.6996V57.5938C66.7043 56.9261 66.5339 56.4053 66.1882 56.0312C65.8426 55.6525 65.3667 55.4631 64.7607 55.4631C64.3535 55.4631 63.9936 55.5507 63.6811 55.7259C63.3733 55.901 63.1319 56.1567 62.9567 56.4929C62.7862 56.8243 62.6986 57.2244 62.6939 57.6932ZM77.0245 68.3182C76.0444 68.3182 75.204 68.1832 74.5032 67.9134C73.8072 67.6482 73.2532 67.286 72.8413 66.8267C72.4293 66.3674 72.1618 65.8513 72.0387 65.2784L74.837 64.902C74.9222 65.1198 75.0572 65.3234 75.2418 65.5128C75.4265 65.7022 75.6703 65.8537 75.9734 65.9673C76.2811 66.0857 76.6552 66.1449 77.0955 66.1449C77.7537 66.1449 78.2958 65.9839 78.7219 65.6619C79.1528 65.3447 79.3683 64.812 79.3683 64.0639V62.0682H79.2404C79.1078 62.3712 78.909 62.6577 78.6438 62.9276C78.3787 63.1974 78.0378 63.4176 77.6211 63.5881C77.2044 63.7585 76.7073 63.8438 76.1296 63.8438C75.3105 63.8438 74.5647 63.6544 73.8924 63.2756C73.2248 62.892 72.6921 62.3073 72.2944 61.5213C71.9014 60.7306 71.7049 59.7315 71.7049 58.5241C71.7049 57.2884 71.9061 56.2562 72.3086 55.4276C72.7111 54.599 73.2461 53.9787 73.9137 53.5668C74.5861 53.1548 75.3223 52.9489 76.1225 52.9489C76.7333 52.9489 77.2447 53.053 77.6566 53.2614C78.0685 53.465 78.4 53.7206 78.6509 54.0284C78.9066 54.3314 79.1031 54.6297 79.2404 54.9233H79.354V53.0909H82.3583V64.1065C82.3583 65.0346 82.131 65.8111 81.6765 66.4361C81.2219 67.0611 80.5922 67.5298 79.7873 67.8423C78.9871 68.1596 78.0662 68.3182 77.0245 68.3182ZM77.0884 61.571C77.5761 61.571 77.988 61.4503 78.3242 61.2088C78.6651 60.9626 78.9255 60.6122 79.1055 60.1577C79.2901 59.6984 79.3825 59.1491 79.3825 58.5099C79.3825 57.8707 79.2925 57.3168 79.1126 56.848C78.9326 56.3745 78.6722 56.0076 78.3313 55.7472C77.9904 55.4867 77.5761 55.3565 77.0884 55.3565C76.5913 55.3565 76.1722 55.4915 75.8313 55.7614C75.4904 56.0265 75.2324 56.3958 75.0572 56.8693C74.882 57.3428 74.7944 57.8897 74.7944 58.5099C74.7944 59.1397 74.882 59.6842 75.0572 60.1435C75.2371 60.598 75.4951 60.9508 75.8313 61.2017C76.1722 61.4479 76.5913 61.571 77.0884 61.571ZM90.0767 57.0824V54.5611H99.8849V57.0824H90.0767ZM90.0767 61.7983V59.277H99.8849V61.7983H90.0767ZM193.551 63.8864L186.392 56.7273L193.551 49.5682L195.199 51.2017L190.874 55.527H208.736V57.9276H190.874L195.199 62.2457L193.551 63.8864ZM225.018 53.6378C224.961 53.0649 224.717 52.6198 224.287 52.3026C223.856 51.9853 223.271 51.8267 222.532 51.8267C222.03 51.8267 221.607 51.8977 221.261 52.0398C220.915 52.1771 220.65 52.3688 220.466 52.6151C220.286 52.8613 220.196 53.1406 220.196 53.4531C220.186 53.7135 220.241 53.9408 220.359 54.1349C220.482 54.3291 220.65 54.4972 220.863 54.6392C221.076 54.7765 221.323 54.8973 221.602 55.0014C221.881 55.1009 222.18 55.1861 222.497 55.2571L223.804 55.5696C224.438 55.7116 225.02 55.901 225.551 56.1378C226.081 56.3745 226.54 56.6657 226.929 57.0114C227.317 57.357 227.618 57.7642 227.831 58.233C228.048 58.7017 228.16 59.2391 228.164 59.8452C228.16 60.7353 227.932 61.5071 227.483 62.1605C227.038 62.8092 226.394 63.3134 225.551 63.6733C224.713 64.0284 223.702 64.206 222.518 64.206C221.344 64.206 220.321 64.026 219.45 63.6662C218.583 63.3063 217.906 62.7737 217.419 62.0682C216.936 61.358 216.682 60.4796 216.659 59.4332H219.635C219.668 59.9209 219.807 60.3281 220.054 60.6548C220.305 60.9768 220.638 61.2206 221.055 61.3864C221.476 61.5473 221.952 61.6278 222.483 61.6278C223.003 61.6278 223.456 61.5521 223.839 61.4006C224.227 61.2491 224.528 61.0384 224.741 60.7685C224.954 60.4986 225.061 60.1884 225.061 59.8381C225.061 59.5114 224.964 59.2367 224.77 59.0142C224.58 58.7917 224.301 58.6023 223.931 58.446C223.567 58.2898 223.119 58.1477 222.589 58.0199L221.005 57.6222C219.779 57.3239 218.811 56.8575 218.1 56.223C217.39 55.5885 217.038 54.7339 217.042 53.6591C217.038 52.7784 217.272 52.009 217.745 51.3509C218.224 50.6927 218.879 50.179 219.713 49.8097C220.546 49.4403 221.493 49.2557 222.554 49.2557C223.633 49.2557 224.575 49.4403 225.38 49.8097C226.19 50.179 226.82 50.6927 227.27 51.3509C227.719 52.009 227.951 52.7713 227.966 53.6378H225.018ZM235.979 53.0909V55.3636H229.409V53.0909H235.979ZM230.901 50.4773H233.926V60.6477C233.926 60.9271 233.969 61.1449 234.054 61.3011C234.139 61.4527 234.258 61.5592 234.409 61.6207C234.565 61.6823 234.745 61.7131 234.949 61.7131C235.091 61.7131 235.233 61.7012 235.375 61.6776C235.517 61.6491 235.626 61.6278 235.702 61.6136L236.178 63.8651C236.026 63.9124 235.813 63.9669 235.538 64.0284C235.264 64.0947 234.93 64.1349 234.537 64.1491C233.808 64.1776 233.169 64.0805 232.619 63.858C232.075 63.6354 231.651 63.2898 231.348 62.821C231.045 62.3523 230.896 61.7604 230.901 61.0455V50.4773ZM237.95 64V53.0909H240.883V54.9943H240.996C241.195 54.3172 241.529 53.8059 241.998 53.4602C242.467 53.1098 243.006 52.9347 243.617 52.9347C243.769 52.9347 243.932 52.9441 244.107 52.9631C244.282 52.982 244.436 53.008 244.569 53.0412V55.7259C244.427 55.6832 244.23 55.6454 243.979 55.6122C243.728 55.5791 243.499 55.5625 243.29 55.5625C242.845 55.5625 242.448 55.6596 242.097 55.8537C241.752 56.0431 241.477 56.3082 241.273 56.6491C241.075 56.9901 240.975 57.383 240.975 57.8281V64H237.95ZM246.133 64V53.0909H249.159V64H246.133ZM247.653 51.6847C247.203 51.6847 246.817 51.5355 246.495 51.2372C246.178 50.9342 246.02 50.572 246.02 50.1506C246.02 49.7339 246.178 49.3764 246.495 49.0781C246.817 48.7751 247.203 48.6236 247.653 48.6236C248.103 48.6236 248.486 48.7751 248.804 49.0781C249.126 49.3764 249.287 49.7339 249.287 50.1506C249.287 50.572 249.126 50.9342 248.804 51.2372C248.486 51.5355 248.103 51.6847 247.653 51.6847ZM254.608 57.6932V64H251.582V53.0909H254.466V55.0156H254.594C254.835 54.3812 255.24 53.8793 255.808 53.5099C256.376 53.1359 257.065 52.9489 257.875 52.9489C258.633 52.9489 259.293 53.1146 259.857 53.446C260.42 53.7775 260.858 54.2509 261.17 54.8665C261.483 55.4773 261.639 56.2064 261.639 57.054V64H258.614V57.5938C258.618 56.9261 258.448 56.4053 258.102 56.0312C257.757 55.6525 257.281 55.4631 256.675 55.4631C256.268 55.4631 255.908 55.5507 255.595 55.7259C255.287 55.901 255.046 56.1567 254.871 56.4929C254.7 56.8243 254.613 57.2244 254.608 57.6932ZM268.939 68.3182C267.958 68.3182 267.118 68.1832 266.417 67.9134C265.721 67.6482 265.167 67.286 264.755 66.8267C264.343 66.3674 264.076 65.8513 263.953 65.2784L266.751 64.902C266.836 65.1198 266.971 65.3234 267.156 65.5128C267.341 65.7022 267.584 65.8537 267.887 65.9673C268.195 66.0857 268.569 66.1449 269.01 66.1449C269.668 66.1449 270.21 65.9839 270.636 65.6619C271.067 65.3447 271.282 64.812 271.282 64.0639V62.0682H271.154C271.022 62.3712 270.823 62.6577 270.558 62.9276C270.293 63.1974 269.952 63.4176 269.535 63.5881C269.118 63.7585 268.621 63.8438 268.044 63.8438C267.225 63.8438 266.479 63.6544 265.806 63.2756C265.139 62.892 264.606 62.3073 264.208 61.5213C263.815 60.7306 263.619 59.7315 263.619 58.5241C263.619 57.2884 263.82 56.2562 264.223 55.4276C264.625 54.599 265.16 53.9787 265.828 53.5668C266.5 53.1548 267.236 52.9489 268.037 52.9489C268.647 52.9489 269.159 53.053 269.571 53.2614C269.983 53.465 270.314 53.7206 270.565 54.0284C270.821 54.3314 271.017 54.6297 271.154 54.9233H271.268V53.0909H274.272V64.1065C274.272 65.0346 274.045 65.8111 273.591 66.4361C273.136 67.0611 272.506 67.5298 271.701 67.8423C270.901 68.1596 269.98 68.3182 268.939 68.3182ZM269.002 61.571C269.49 61.571 269.902 61.4503 270.238 61.2088C270.579 60.9626 270.84 60.6122 271.02 60.1577C271.204 59.6984 271.297 59.1491 271.297 58.5099C271.297 57.8707 271.207 57.3168 271.027 56.848C270.847 56.3745 270.586 56.0076 270.245 55.7472C269.904 55.4867 269.49 55.3565 269.002 55.3565C268.505 55.3565 268.086 55.4915 267.745 55.7614C267.404 56.0265 267.146 56.3958 266.971 56.8693C266.796 57.3428 266.708 57.8897 266.708 58.5099C266.708 59.1397 266.796 59.6842 266.971 60.1435C267.151 60.598 267.409 60.9508 267.745 61.2017C268.086 61.4479 268.505 61.571 269.002 61.571Z" fill="black"/>
<path d="M175.496 16.1989C174.402 16.1989 173.429 16.0213 172.577 15.6662C171.729 15.3063 171.064 14.8163 170.581 14.196C170.098 13.5758 169.857 12.8726 169.857 12.0866C169.857 11.4806 169.994 10.9242 170.268 10.4176C170.548 9.90625 170.927 9.48248 171.405 9.14631C171.883 8.8054 172.418 8.58759 173.01 8.4929V8.39347C172.233 8.23722 171.604 7.8608 171.121 7.2642C170.638 6.66288 170.396 5.96449 170.396 5.16903C170.396 4.41619 170.616 3.74621 171.057 3.15909C171.497 2.56723 172.101 2.10322 172.868 1.76705C173.64 1.42614 174.516 1.25568 175.496 1.25568C176.476 1.25568 177.349 1.42614 178.116 1.76705C178.888 2.10795 179.494 2.57434 179.935 3.16619C180.375 3.75331 180.598 4.42093 180.602 5.16903C180.598 5.96922 180.351 6.66761 179.864 7.2642C179.376 7.8608 178.751 8.23722 177.989 8.39347V8.4929C178.571 8.58759 179.099 8.8054 179.572 9.14631C180.051 9.48248 180.429 9.90625 180.709 10.4176C180.993 10.9242 181.137 11.4806 181.142 12.0866C181.137 12.8726 180.893 13.5758 180.411 14.196C179.928 14.8163 179.26 15.3063 178.408 15.6662C177.56 16.0213 176.589 16.1989 175.496 16.1989ZM175.496 13.9403C175.983 13.9403 176.41 13.8527 176.774 13.6776C177.139 13.4976 177.423 13.2514 177.626 12.9389C177.835 12.6217 177.939 12.2571 177.939 11.8452C177.939 11.4238 177.832 11.0521 177.619 10.7301C177.406 10.4034 177.117 10.1477 176.753 9.96307C176.388 9.77367 175.969 9.67898 175.496 9.67898C175.027 9.67898 174.608 9.77367 174.239 9.96307C173.869 10.1477 173.578 10.4034 173.365 10.7301C173.157 11.0521 173.053 11.4238 173.053 11.8452C173.053 12.2571 173.154 12.6217 173.358 12.9389C173.562 13.2514 173.848 13.4976 174.217 13.6776C174.587 13.8527 175.013 13.9403 175.496 13.9403ZM175.496 7.44176C175.903 7.44176 176.265 7.3589 176.582 7.19318C176.9 7.02746 177.148 6.79782 177.328 6.50426C177.508 6.2107 177.598 5.87216 177.598 5.48864C177.598 5.10985 177.508 4.77841 177.328 4.49432C177.148 4.20549 176.902 3.98059 176.589 3.8196C176.277 3.65388 175.912 3.57102 175.496 3.57102C175.084 3.57102 174.719 3.65388 174.402 3.8196C174.085 3.98059 173.836 4.20549 173.656 4.49432C173.481 4.77841 173.393 5.10985 173.393 5.48864C173.393 5.87216 173.483 6.2107 173.663 6.50426C173.843 6.79782 174.092 7.02746 174.409 7.19318C174.726 7.3589 175.089 7.44176 175.496 7.44176Z" fill="#DA4949"/>
<path d="M136.73 27.9901V25.4545H148.676V27.9901H144.223V40H141.183V27.9901H136.73ZM149.453 40V29.0909H152.387V30.9943H152.5C152.699 30.3172 153.033 29.8059 153.502 29.4602C153.971 29.1098 154.51 28.9347 155.121 28.9347C155.273 28.9347 155.436 28.9441 155.611 28.9631C155.786 28.982 155.94 29.008 156.073 29.0412V31.7259C155.931 31.6832 155.734 31.6454 155.483 31.6122C155.232 31.5791 155.003 31.5625 154.794 31.5625C154.349 31.5625 153.952 31.6596 153.601 31.8537C153.256 32.0431 152.981 32.3082 152.777 32.6491C152.578 32.9901 152.479 33.383 152.479 33.8281V40H149.453ZM164.633 35.3551V29.0909H167.658V40H164.754V38.0185H164.64C164.394 38.6577 163.984 39.1714 163.411 39.5597C162.843 39.9479 162.149 40.142 161.33 40.142C160.601 40.142 159.96 39.9763 159.406 39.6449C158.852 39.3134 158.418 38.8423 158.106 38.2315C157.798 37.6207 157.642 36.8892 157.637 36.0369V29.0909H160.663V35.4972C160.667 36.1411 160.84 36.6501 161.181 37.0241C161.522 37.3982 161.979 37.5852 162.552 37.5852C162.916 37.5852 163.257 37.5024 163.575 37.3366C163.892 37.1662 164.147 36.9152 164.342 36.5838C164.54 36.2524 164.638 35.8428 164.633 35.3551ZM175.05 40.2131C173.928 40.2131 172.962 39.9858 172.152 39.5312C171.347 39.072 170.727 38.4233 170.292 37.5852C169.856 36.7424 169.638 35.7457 169.638 34.5952C169.638 33.473 169.856 32.4882 170.292 31.6406C170.727 30.7931 171.34 30.1326 172.131 29.6591C172.926 29.1856 173.859 28.9489 174.929 28.9489C175.649 28.9489 176.319 29.0649 176.939 29.2969C177.564 29.5241 178.109 29.8674 178.573 30.3267C179.042 30.786 179.406 31.3636 179.667 32.0597C179.927 32.7509 180.057 33.5606 180.057 34.4886V35.3196H170.846V33.4446H177.209C177.209 33.009 177.114 32.6231 176.925 32.2869C176.736 31.9508 176.473 31.688 176.137 31.4986C175.805 31.3045 175.419 31.2074 174.979 31.2074C174.52 31.2074 174.113 31.3139 173.757 31.527C173.407 31.7353 173.132 32.017 172.934 32.3722C172.735 32.7225 172.633 33.1132 172.628 33.544V35.3267C172.628 35.8665 172.728 36.3329 172.926 36.7259C173.13 37.1188 173.417 37.4219 173.786 37.6349C174.155 37.848 174.593 37.9545 175.1 37.9545C175.436 37.9545 175.744 37.9072 176.023 37.8125C176.302 37.7178 176.542 37.5758 176.74 37.3864C176.939 37.197 177.091 36.965 177.195 36.6903L179.993 36.875C179.851 37.5473 179.56 38.1345 179.12 38.6364C178.684 39.1335 178.121 39.5218 177.429 39.8011C176.743 40.0758 175.95 40.2131 175.05 40.2131Z" fill="#7AAC33"/>
<path d="M107.511 54V52.4659C107.511 52.0303 107.596 51.5852 107.767 51.1307C107.937 50.6761 108.162 50.2476 108.441 49.8452C108.721 49.4427 109.024 49.1065 109.35 48.8366L110.686 49.625C110.421 50.0417 110.203 50.4773 110.032 50.9318C109.867 51.3864 109.784 51.893 109.784 52.4517V54H107.511ZM111.098 54V52.4659C111.098 52.0303 111.183 51.5852 111.353 51.1307C111.524 50.6761 111.749 50.2476 112.028 49.8452C112.307 49.4427 112.61 49.1065 112.937 48.8366L114.272 49.625C114.007 50.0417 113.789 50.4773 113.619 50.9318C113.453 51.3864 113.37 51.893 113.37 52.4517V54H111.098ZM116.112 64V49.4545H119.187V55.456H125.43V49.4545H128.498V64H125.43V57.9915H119.187V64H116.112ZM135.949 64.2131C134.826 64.2131 133.86 63.9858 133.051 63.5312C132.246 63.072 131.626 62.4233 131.19 61.5852C130.754 60.7424 130.537 59.7457 130.537 58.5952C130.537 57.473 130.754 56.4882 131.19 55.6406C131.626 54.7931 132.239 54.1326 133.029 53.6591C133.825 53.1856 134.758 52.9489 135.828 52.9489C136.547 52.9489 137.217 53.0649 137.838 53.2969C138.463 53.5241 139.007 53.8674 139.471 54.3267C139.94 54.786 140.305 55.3636 140.565 56.0597C140.825 56.7509 140.956 57.5606 140.956 58.4886V59.3196H131.744V57.4446H138.108C138.108 57.009 138.013 56.6231 137.824 56.2869C137.634 55.9508 137.371 55.688 137.035 55.4986C136.704 55.3045 136.318 55.2074 135.877 55.2074C135.418 55.2074 135.011 55.3139 134.656 55.527C134.306 55.7353 134.031 56.017 133.832 56.3722C133.633 56.7225 133.531 57.1132 133.527 57.544V59.3267C133.527 59.8665 133.626 60.3329 133.825 60.7259C134.029 61.1188 134.315 61.4219 134.684 61.6349C135.054 61.848 135.492 61.9545 135.998 61.9545C136.334 61.9545 136.642 61.9072 136.922 61.8125C137.201 61.7178 137.44 61.5758 137.639 61.3864C137.838 61.197 137.989 60.965 138.093 60.6903L140.892 60.875C140.75 61.5473 140.458 62.1345 140.018 62.6364C139.583 63.1335 139.019 63.5218 138.328 63.8011C137.641 64.0758 136.848 64.2131 135.949 64.2131ZM145.956 49.4545V64H142.93V49.4545H145.956ZM151.405 49.4545V64H148.379V49.4545H151.405ZM158.757 64.2131C157.654 64.2131 156.7 63.9787 155.895 63.5099C155.095 63.0365 154.477 62.3783 154.042 61.5355C153.606 60.688 153.388 59.7055 153.388 58.5881C153.388 57.4612 153.606 56.4763 154.042 55.6335C154.477 54.786 155.095 54.1278 155.895 53.6591C156.7 53.1856 157.654 52.9489 158.757 52.9489C159.861 52.9489 160.812 53.1856 161.613 53.6591C162.417 54.1278 163.038 54.786 163.473 55.6335C163.909 56.4763 164.127 57.4612 164.127 58.5881C164.127 59.7055 163.909 60.688 163.473 61.5355C163.038 62.3783 162.417 63.0365 161.613 63.5099C160.812 63.9787 159.861 64.2131 158.757 64.2131ZM158.772 61.8693C159.274 61.8693 159.693 61.7273 160.029 61.4432C160.365 61.1544 160.618 60.7614 160.789 60.2642C160.964 59.767 161.051 59.2012 161.051 58.5668C161.051 57.9323 160.964 57.3665 160.789 56.8693C160.618 56.3722 160.365 55.9792 160.029 55.6903C159.693 55.4015 159.274 55.2571 158.772 55.2571C158.265 55.2571 157.839 55.4015 157.493 55.6903C157.152 55.9792 156.894 56.3722 156.719 56.8693C156.549 57.3665 156.463 57.9323 156.463 58.5668C156.463 59.2012 156.549 59.767 156.719 60.2642C156.894 60.7614 157.152 61.1544 157.493 61.4432C157.839 61.7273 158.265 61.8693 158.772 61.8693ZM169.709 49.4545L169.432 59.6392H166.833L166.549 49.4545H169.709ZM168.132 64.1847C167.664 64.1847 167.261 64.0189 166.925 63.6875C166.589 63.3513 166.423 62.9489 166.428 62.4801C166.423 62.0161 166.589 61.6184 166.925 61.2869C167.261 60.9555 167.664 60.7898 168.132 60.7898C168.582 60.7898 168.978 60.9555 169.319 61.2869C169.659 61.6184 169.832 62.0161 169.837 62.4801C169.832 62.7926 169.749 63.0791 169.588 63.3395C169.432 63.5952 169.226 63.8011 168.971 63.9574C168.715 64.1089 168.435 64.1847 168.132 64.1847ZM175.114 49.4545V50.9886C175.114 51.4242 175.029 51.8693 174.858 52.3239C174.693 52.7737 174.47 53.1998 174.191 53.6023C173.911 54 173.606 54.3385 173.275 54.6179L171.939 53.8295C172.176 53.4555 172.384 53.0412 172.564 52.5866C172.749 52.1321 172.841 51.6042 172.841 51.0028V49.4545H175.114ZM178.686 49.4545V50.9886C178.686 51.4242 178.601 51.8693 178.431 52.3239C178.265 52.7737 178.042 53.1998 177.763 53.6023C177.484 54 177.176 54.3385 176.84 54.6179L175.505 53.8295C175.746 53.4555 175.957 53.0412 176.137 52.5866C176.321 52.1321 176.414 51.6042 176.414 51.0028V49.4545H178.686Z" fill="#D97706"/>
</svg>
