<svg viewBox="0 130 2255 1597"
    xmlns:ev="http://www.w3.org/2001/xml-events"
    xmlns="http://www.w3.org/2000/svg" width="2255"
    xmlns:xlink="http://www.w3.org/1999/xlink" height="0">
    <defs/>
    <g id="page1" transform="translate(5.5,5.5)">
        <rect fill="none" width="2245" x="0" y="0" height="1587"/>
        <path fill-rule="nonzero" stroke-width="1" fill="#88b0f5" id="shape1" transform="translate(311.471000,748.815900)" d="M464.6,102.2L464.6,7.0C464.6,3.1,461.4,.0,457.6,.0L7.0,.0C3.1,.0,.0,3.1,.0,7.0L.0,102.2C.0,106.1,3.1,109.2,7.0,109.2L457.6,109.2C461.4,109.2,464.6,106.1,464.6,102.2z" stroke="#101843"/>
        <path fill-rule="nonzero" stroke-width="1" fill="#fbf64e" id="shape2" transform="translate(292.567000,490.838700)" d="M251.2,178.3L502.4,89.2L251.2,.0L.0,89.2L251.2,178.3z" stroke="#101843"/>
        <path fill-rule="nonzero" stroke-width="1" fill="#ff9189" id="shape3" transform="translate(268.378000,170.000000)" d="M.0,143.1C.0,64.0,123.3,.0,275.4,.0C427.5,.0,550.7,64.0,550.7,143.1C550.7,222.1,427.5,286.1,275.4,286.1C123.3,286.1,.0,222.1,.0,143.1z" stroke="#101843"/>
        <g id="shape4" transform="translate(543.750000,669.161000)">
            <path stroke-width="1" fill="none" d="M.0,.0L.0,73.7" stroke="#191919"/>
            <path stroke-width="1" stroke-linecap="round" fill="#191919" d="M3.0,73.7L.0,79.7L-3.0,73.7L3.0,73.7" stroke="#191919"/>
            <rect fill="#ffffff" width="47.5" x="-22.7" y="26.3" height="27.0"/>
            <text style="fill:#191919;font-family:Arial Black,PingFang SC,Mircrosoft YaHei,Arial;font-size:14.00pt" xml:space="preserve">
                <tspan x="-22.7" y="48.3" style="font-family:Arial Black,PingFang SC,Mircrosoft YaHei,Arial">True</tspan>
            </text>
        </g>
        <g id="shape5" transform="translate(265.565000,520.610000)">
            <text style="fill:#191919;font-family:Arial Black,PingFang SC,Mircrosoft YaHei,Arial;font-size:18.00pt" xml:space="preserve">
                <tspan x="264.9" y="36.5" style="font-family:Arial Black,PingFang SC,Mircrosoft YaHei,Arial">If </tspan>
                <tspan x="136.4" y="70.5" style="font-family:Arial Black,PingFang SC,Mircrosoft YaHei,Arial">(total &lt;= your_money)</tspan>
            </text>
        </g>
        <g id="shape6" transform="translate(311.470000,728.921500)">
            <path fill-rule="nonzero" stroke-width="1" fill="#90d6ab" d="M7.0,.0L457.6,.0C461.4,.0,464.6,3.1,464.6,7.0L464.6,128.6C464.6,132.5,461.4,135.6,457.6,135.6L7.0,135.6C3.1,135.6,.0,132.5,.0,128.6L.0,7.0C.0,3.1,3.1,.0,7.0,.0z" stroke="#101843"/>
            <text style="fill:#191919;font-family:Arial Black,PingFang SC,Mircrosoft YaHei,Arial;font-size:16.00pt" xml:space="preserve">
                <tspan x="30.5" y="62.0" style="font-family:Arial Black,PingFang SC,Mircrosoft YaHei,Arial">print("Yes, you can buy a spaghetti </tspan>
                <tspan x="26.5" y="92.0" style="font-family:Arial Black,PingFang SC,Mircrosoft YaHei,Arial">pasta, a burger, and an ice-cream!")</tspan>
            </text>
        </g>
        <g id="shape7" transform="translate(543.750500,456.116000)">
            <path stroke-width="1" fill="none" d="M.0,.0L-0.0,28.0" stroke="#191919"/>
            <path stroke-width="1" stroke-linecap="round" fill="#191919" d="M3.0,28.0L-0.0,34.0L-3.0,28.0L3.0,28.0" stroke="#191919"/>
        </g>
        <g id="shape8" transform="translate(295.601000,196.987500)">
            <text style="fill:#191919;font-family:Arial Black,PingFang SC,Mircrosoft YaHei,Arial;font-size:19.00pt" xml:space="preserve">
                <tspan x="142.0" y="37.1" style="font-family:Arial Black,PingFang SC,Mircrosoft YaHei,Arial">your_money = 9</tspan>
                <tspan x="137.8" y="73.1" style="font-family:Arial Black,PingFang SC,Mircrosoft YaHei,Arial">burger_price = 5</tspan>
                <tspan x="144.1" y="109.1" style="font-family:Arial Black,PingFang SC,Mircrosoft YaHei,Arial">pasta_price = 3</tspan>
                <tspan x="112.1" y="145.1" style="font-family:Arial Black,PingFang SC,Mircrosoft YaHei,Arial">ice_cream_price = 3</tspan>
                <tspan x="6.1" y="181.1" style="font-family:Arial Black,PingFang SC,Mircrosoft YaHei,Arial">total = burger_price + pasta_price + </tspan>
                <tspan x="137.1" y="217.1" style="font-family:Arial Black,PingFang SC,Mircrosoft YaHei,Arial">ice_cream_price</tspan>
            </text>
        </g>
        <g id="shape9" transform="translate(839.441000,735.420400)">
            <path fill-rule="nonzero" stroke-width="1" fill="#90d6ab" d="M7.0,.0L457.6,.0C461.4,.0,464.6,3.1,464.6,7.0L464.6,115.6C464.6,119.5,461.4,122.6,457.6,122.6L7.0,122.6C3.1,122.6,.0,119.5,.0,115.6L.0,7.0C.0,3.1,3.1,.0,7.0,.0z" stroke="#101843"/>
            <text style="fill:#191919;font-family:Arial Black,PingFang SC,Mircrosoft YaHei,Arial;font-size:16.00pt" xml:space="preserve">
                <tspan x="30.0" y="40.5" style="font-family:Arial Black,PingFang SC,Mircrosoft YaHei,Arial">print("Sorry, you don't have enough </tspan>
                <tspan x="9.0" y="70.5" style="font-family:Arial Black,PingFang SC,Mircrosoft YaHei,Arial">money to buy a pasta, a burger, and an </tspan>
                <tspan x="162.3" y="100.5" style="font-family:Arial Black,PingFang SC,Mircrosoft YaHei,Arial">ice-cream.")</tspan>
            </text>
        </g>
        <g id="shape10" transform="translate(794.930000,580.000000)">
            <path stroke-width="1" fill="none" d="M.0,.0L282.1,.0L282.1,149.4" stroke="#191919"/>
            <path stroke-width="1" stroke-linecap="round" fill="#191919" d="M285.1,149.4L282.1,155.4L279.1,149.4L285.1,149.4" stroke="#191919"/>
            <rect fill="#ffffff" width="55.9" x="97.0" y="-13.5" height="27.0"/>
            <text style="fill:#191919;font-family:Arial Black,PingFang SC,Mircrosoft YaHei,Arial;font-size:14.00pt" xml:space="preserve">
                <tspan x="97.0" y="8.5" style="font-family:Arial Black,PingFang SC,Mircrosoft YaHei,Arial">False</tspan>
            </text>
        </g>
    </g>
</svg>