<svg viewBox="0 130 1132 804"
    xmlns:ev="http://www.w3.org/2001/xml-events"
    xmlns="http://www.w3.org/2000/svg" width="1132"
    xmlns:xlink="http://www.w3.org/1999/xlink" height="0">
    <defs/>
    <g id="page1" transform="translate(5.5,5.5)">
        <rect fill="none" width="1123" x="0" y="0" height="794"/>
        <path fill-rule="nonzero" stroke-width="1" fill="#ff9189" id="shape1" transform="translate(268.378000,170.000000)" d="M.0,143.1C.0,64.0,123.3,.0,275.4,.0C427.5,.0,550.7,64.0,550.7,143.1C550.7,222.1,427.5,286.1,275.4,286.1C123.3,286.1,.0,222.1,.0,143.1z" stroke="#101843"/>
        <g id="shape2" transform="translate(295.601000,196.987500)">
            <text style="fill:#191919;font-family:Arial Black,PingFang SC,Mircrosoft YaHei,Arial;font-size:19.00pt" xml:space="preserve">
                <tspan x="142.0" y="37.1" style="font-family:Arial Black,PingFang SC,Mircrosoft YaHei,Arial">your_money = 9</tspan>
                <tspan x="137.8" y="73.1" style="font-family:Arial Black,PingFang SC,Mircrosoft YaHei,Arial">burger_price = 5</tspan>
                <tspan x="144.1" y="109.1" style="font-family:Arial Black,PingFang SC,Mircrosoft YaHei,Arial">pasta_price = 3</tspan>
                <tspan x="112.1" y="145.1" style="font-family:Arial Black,PingFang SC,Mircrosoft YaHei,Arial">ice_cream_price = 3</tspan>
                <tspan x="6.1" y="181.1" style="font-family:Arial Black,PingFang SC,Mircrosoft YaHei,Arial">total = burger_price + pasta_price + </tspan>
                <tspan x="137.1" y="217.1" style="font-family:Arial Black,PingFang SC,Mircrosoft YaHei,Arial">ice_cream_price</tspan>
            </text>
        </g>
        <g id="shape3" transform="translate(543.750500,456.116000)">
            <path stroke-width="1" fill="none" d="M.0,.0L.0,66.9" stroke="#191919"/>
            <path stroke-width="1" stroke-linecap="round" fill="#191919" d="M3.0,66.9L.0,72.9L-3.0,66.9L3.0,66.9" stroke="#191919"/>
        </g>
    </g>
</svg>