<svg width="1132" viewBox="0 0 1132 804" xmlns="http://www.w3.org/2000/svg" height="804" xmlns:xlink="http://www.w3.org/1999/xlink" xmlns:ev="http://www.w3.org/2001/xml-events"><defs/><g transform="translate(5.5,5.5)" id="page1"><rect width="1123" height="794" fill="none" y="0" x="0"/><g transform="translate(387.399000,141.307500)" id="shape1"><path fill="#ff9189" stroke-width="1" d="M66.7,133.4L324.7,133.4L324.7,133.4C361.5,133.4,391.3,103.5,391.3,66.7C391.3,29.9,361.5,.0,324.7,.0L66.7,.0L66.7,.0C29.9,.0,.0,29.9,.0,66.7C.0,103.5,29.9,133.4,66.7,133.4z" stroke="#101843" fill-rule="nonzero"/><text xml:space="preserve" style="fill:#191919;font-family:Times New Roman,PingFang SC,Mircrosoft YaHei,Arial;font-size:14.00pt"><tspan y="39.7" x="56.7" style="font-family:Times New Roman,PingFang SC,Mircrosoft YaHei,Arial">#Each time you complete a lap, it will </tspan><tspan y="61.7" x="52.7" style="font-family:Times New Roman,PingFang SC,Mircrosoft YaHei,Arial">print 'Completed a lap of pony riding!'</tspan><tspan y="105.7" x="136.7" style="font-family:Times New Roman,PingFang SC,Mircrosoft YaHei,Arial">lap_number = 0</tspan></text></g><g transform="translate(399.727000,325.912500)" id="shape2"><path fill="#fdff85" stroke-width="1" d="M183.3,130.9L366.7,65.4L183.3,.0L.0,65.4L183.3,130.9z" stroke="#101843" fill-rule="nonzero"/><text xml:space="preserve" style="fill:#191919;font-family:Times New Roman,PingFang SC,Mircrosoft YaHei,Arial;font-size:14.00pt"><tspan y="71.4" x="100.8" style="font-family:Times New Roman,PingFang SC,Mircrosoft YaHei,Arial">while lap_number &lt; 3:</tspan></text></g><g transform="translate(399.727000,557.866000)" id="shape3"><path fill="#90d6ab" stroke-width="1" d="M366.7,87.0L366.7,7.0C366.7,3.1,363.6,.0,359.7,.0L7.0,.0C3.1,.0,.0,3.1,.0,7.0L.0,87.0C.0,90.8,3.1,94.0,7.0,94.0L359.7,94.0C363.6,94.0,366.7,90.8,366.7,87.0z" stroke="#000000" fill-rule="nonzero"/><text xml:space="preserve" style="fill:#191919;font-family:Times New Roman,PingFang SC,Mircrosoft YaHei,Arial;font-size:14.00pt"><tspan y="42.0" x="32.8" style="font-family:Times New Roman,PingFang SC,Mircrosoft YaHei,Arial">print(''Completed a lap of pony riding!'')</tspan><tspan y="64.0" x="69.8" style="font-family:Times New Roman,PingFang SC,Mircrosoft YaHei,Arial">lap_number = lap_number + 1</tspan></text></g><g transform="translate(583.070500,274.692500)" id="shape4"><path fill="none" stroke-width="1" d="M.0,.0L.0,45.2" stroke="#191919"/><path fill="#191919" stroke-width="1" d="M3.0,45.2L.0,51.2L-3.0,45.2L3.0,45.2" stroke-linecap="round" stroke="#191919"/></g><g transform="translate(583.071000,456.787500)" id="shape5"><path fill="none" stroke-width="1" d="M.0,.0L.0,95.1" stroke="#000000"/><path fill="#000000" stroke-width="1" d="M3.0,95.1L.0,101.1L-3.0,95.1L3.0,95.1" stroke-linecap="round" stroke="#000000"/><rect width="34.0" height="22.0" fill="#ffffff" y="39.5" x="-16.0"/><text xml:space="preserve" style="fill:#ff0000;font-family:Times New Roman,PingFang SC,Mircrosoft YaHei,Arial;font-size:14.00pt"><tspan y="56.5" x="-16.0" style="fill:#191919;font-family:Times New Roman,PingFang SC,Mircrosoft YaHei,Arial">True</tspan></text></g><g transform="translate(766.414000,604.851000)" id="shape6"><path fill="none" stroke-width="1" d="M.0,.0L121.6,.0L121.6,-213.5L6.0,-213.5" stroke="#191919"/><path fill="#191919" stroke-width="1" d="M6.0,-210.5L.0,-213.5L6.0,-216.5L6.0,-210.5" stroke-linecap="round" stroke="#191919"/></g><g transform="translate(399.727000,391.350000)" id="shape7"><path fill="none" stroke-width="1" d="M.0,.0L-123.6,.0" stroke="#ff0000"/><path fill="#ff0000" stroke-width="1" d="M-123.6,3.0L-129.6,.0L-123.6,-3.0L-123.6,3.0" stroke-linecap="round" stroke="#ff0000"/><rect width="39.0" height="22.0" fill="#ffffff" y="-11.0" x="-78.3"/><text xml:space="preserve" style="fill:#ff0000;font-family:Times New Roman,PingFang SC,Mircrosoft YaHei,Arial;font-size:14.00pt"><tspan y="6.0" x="-78.3" style="font-family:Times New Roman,PingFang SC,Mircrosoft YaHei,Arial">False</tspan></text></g><g transform="translate(170.084000,369.350000)" id="shape8"><path fill="#ff9189" stroke-width="1" d="M22.0,44.0L78.0,44.0L78.0,44.0C90.2,44.0,100.0,34.2,100.0,22.0C100.0,9.8,90.2,.0,78.0,.0L22.0,.0L22.0,.0C9.8,.0,.0,9.8,.0,22.0C.0,34.2,9.8,44.0,22.0,44.0z" stroke="#ff0000" fill-rule="nonzero"/><text xml:space="preserve" style="fill:#191919;font-family:Times New Roman,PingFang SC,Mircrosoft YaHei,Arial;font-size:14.00pt"><tspan y="28.0" x="35.0" style="font-family:Times New Roman,PingFang SC,Mircrosoft YaHei,Arial">End</tspan></text></g></g></svg>