<svg width="191" height="64" viewBox="0 0 191 64" fill="none" xmlns="http://www.w3.org/2000/svg">
<path d="M36.5501 15.1989C35.5463 15.1989 34.6514 15.0142 33.8654 14.6449C33.0842 14.2756 32.4639 13.7666 32.0046 13.1179C31.5453 12.4692 31.3062 11.7259 31.2873 10.8878H34.2702C34.3034 11.4512 34.5401 11.9081 34.9805 12.2585C35.4208 12.6089 35.944 12.7841 36.5501 12.7841C37.033 12.7841 37.4592 12.6776 37.8285 12.4645C38.2025 12.2467 38.4937 11.946 38.7021 11.5625C38.9151 11.1742 39.0217 10.7292 39.0217 10.2273C39.0217 9.71591 38.9128 9.2661 38.695 8.87784C38.4819 8.48958 38.186 8.18655 37.8072 7.96875C37.4284 7.75095 36.9951 7.63968 36.5075 7.63494C36.0813 7.63494 35.667 7.72254 35.2646 7.89773C34.8668 8.07292 34.5567 8.31203 34.3342 8.61506L31.5998 8.125L32.2887 0.454545H41.1808V2.96875H34.8242L34.4478 6.61222H34.533C34.7887 6.25237 35.1746 5.95407 35.6907 5.71733C36.2068 5.48059 36.7844 5.36222 37.4237 5.36222C38.2996 5.36222 39.0808 5.56818 39.7674 5.98011C40.454 6.39205 40.9961 6.95786 41.3938 7.67756C41.7915 8.39252 41.988 9.21638 41.9833 10.1491C41.988 11.1293 41.7608 12.0005 41.3015 12.7628C40.8469 13.5204 40.2101 14.117 39.391 14.5526C38.5766 14.9834 37.6296 15.1989 36.5501 15.1989ZM49.4673 6.63352V4.10511H59.2756V6.63352H49.4673ZM49.4673 11.3494V8.82102H59.2756V11.3494H49.4673ZM63.0611 6.63352V4.10511H72.8693V6.63352H63.0611ZM63.0611 11.3494V8.82102H72.8693V11.3494H63.0611ZM85.886 15.1989C84.8822 15.1989 83.9873 15.0142 83.2013 14.6449C82.4201 14.2756 81.7998 13.7666 81.3406 13.1179C80.8813 12.4692 80.6422 11.7259 80.6232 10.8878H83.6062C83.6393 11.4512 83.8761 11.9081 84.3164 12.2585C84.7567 12.6089 85.2799 12.7841 85.886 12.7841C86.369 12.7841 86.7951 12.6776 87.1644 12.4645C87.5385 12.2467 87.8297 11.946 88.038 11.5625C88.2511 11.1742 88.3576 10.7292 88.3576 10.2273C88.3576 9.71591 88.2487 9.2661 88.0309 8.87784C87.8178 8.48958 87.5219 8.18655 87.1431 7.96875C86.7643 7.75095 86.3311 7.63968 85.8434 7.63494C85.4173 7.63494 85.003 7.72254 84.6005 7.89773C84.2028 8.07292 83.8926 8.31203 83.6701 8.61506L80.9357 8.125L81.6246 0.454545H90.5167V2.96875H84.1602L83.7837 6.61222H83.869C84.1246 6.25237 84.5105 5.95407 85.0266 5.71733C85.5427 5.48059 86.1204 5.36222 86.7596 5.36222C87.6355 5.36222 88.4168 5.56818 89.1033 5.98011C89.7899 6.39205 90.332 6.95786 90.7298 7.67756C91.1275 8.39252 91.324 9.21638 91.3192 10.1491C91.324 11.1293 91.0967 12.0005 90.6374 12.7628C90.1829 13.5204 89.546 14.117 88.7269 14.5526C87.9125 14.9834 86.9656 15.1989 85.886 15.1989ZM98.8033 6.63352V4.10511H108.612V6.63352H98.8033ZM98.8033 11.3494V8.82102H108.612V11.3494H98.8033ZM0.546875 31.7273C0.546875 29.9659 0.78125 28.3442 1.25 26.8622C1.72348 25.3802 2.44555 24.0071 3.41619 22.7429H6.30682C5.9375 23.2116 5.59422 23.7846 5.27699 24.4616C4.95975 25.134 4.68277 25.8726 4.44602 26.6776C4.20928 27.4825 4.02462 28.3158 3.89205 29.1776C3.75947 30.0346 3.69318 30.8845 3.69318 31.7273C3.69318 32.8494 3.80682 33.9834 4.03409 35.1293C4.2661 36.2704 4.5786 37.331 4.97159 38.3111C5.36932 39.2912 5.81439 40.0938 6.30682 40.7188H3.41619C2.44555 39.4545 1.72348 38.0814 1.25 36.5994C0.78125 35.1174 0.546875 33.4934 0.546875 31.7273ZM13.3469 39.1989C12.3432 39.1989 11.4483 39.0142 10.6623 38.6449C9.88104 38.2756 9.26077 37.7666 8.80149 37.1179C8.34221 36.4692 8.1031 35.7259 8.08416 34.8878H11.0671C11.1003 35.4512 11.337 35.9081 11.7773 36.2585C12.2177 36.6089 12.7409 36.7841 13.3469 36.7841C13.8299 36.7841 14.256 36.6776 14.6254 36.4645C14.9994 36.2467 15.2906 35.946 15.4989 35.5625C15.712 35.1742 15.8185 34.7292 15.8185 34.2273C15.8185 33.7159 15.7096 33.2661 15.4918 32.8778C15.2788 32.4896 14.9828 32.1866 14.604 31.9688C14.2253 31.7509 13.792 31.6397 13.3043 31.6349C12.8782 31.6349 12.4639 31.7225 12.0614 31.8977C11.6637 32.0729 11.3536 32.312 11.131 32.6151L8.39666 32.125L9.08558 24.4545H17.9776V26.9688H11.6211L11.2447 30.6122H11.3299C11.5856 30.2524 11.9715 29.9541 12.4876 29.7173C13.0037 29.4806 13.5813 29.3622 14.2205 29.3622C15.0965 29.3622 15.8777 29.5682 16.5643 29.9801C17.2508 30.392 17.793 30.9579 18.1907 31.6776C18.5884 32.3925 18.7849 33.2164 18.7802 34.1491C18.7849 35.1293 18.5576 36.0005 18.0984 36.7628C17.6438 37.5204 17.007 38.117 16.1879 38.5526C15.3735 38.9834 14.4265 39.1989 13.3469 39.1989ZM29.9006 36.7841V26.7273H32.4432V36.7841H29.9006ZM26.1435 33.027V30.4844H36.2003V33.027H26.1435ZM49.0891 39.1989C48.0853 39.1989 47.1905 39.0142 46.4045 38.6449C45.6232 38.2756 45.003 37.7666 44.5437 37.1179C44.0844 36.4692 43.8453 35.7259 43.8263 34.8878H46.8093C46.8424 35.4512 47.0792 35.9081 47.5195 36.2585C47.9599 36.6089 48.4831 36.7841 49.0891 36.7841C49.5721 36.7841 49.9982 36.6776 50.3675 36.4645C50.7416 36.2467 51.0328 35.946 51.2411 35.5625C51.4542 35.1742 51.5607 34.7292 51.5607 34.2273C51.5607 33.7159 51.4518 33.2661 51.234 32.8778C51.021 32.4896 50.725 32.1866 50.3462 31.9688C49.9674 31.7509 49.5342 31.6397 49.0465 31.6349C48.6204 31.6349 48.2061 31.7225 47.8036 31.8977C47.4059 32.0729 47.0958 32.312 46.8732 32.6151L44.1388 32.125L44.8278 24.4545H53.7198V26.9688H47.3633L46.9869 30.6122H47.0721C47.3278 30.2524 47.7137 29.9541 48.2298 29.7173C48.7459 29.4806 49.3235 29.3622 49.9627 29.3622C50.8387 29.3622 51.6199 29.5682 52.3065 29.9801C52.993 30.392 53.5352 30.9579 53.9329 31.6776C54.3306 32.3925 54.5271 33.2164 54.5224 34.1491C54.5271 35.1293 54.2998 36.0005 53.8406 36.7628C53.386 37.5204 52.7492 38.117 51.93 38.5526C51.1156 38.9834 50.1687 39.1989 49.0891 39.1989ZM61.7951 31.7273C61.7951 33.4934 61.5584 35.1174 61.0849 36.5994C60.6161 38.0814 59.8964 39.4545 58.9258 40.7188H56.0352C56.4045 40.25 56.7478 39.6771 57.065 39C57.3822 38.3229 57.6592 37.5843 57.896 36.7841C58.1327 35.9792 58.3174 35.1458 58.4499 34.2841C58.5825 33.4223 58.6488 32.5701 58.6488 31.7273C58.6488 30.6051 58.5328 29.4735 58.3008 28.3324C58.0735 27.1866 57.761 26.1259 57.3633 25.1506C56.9703 24.1705 56.5276 23.3679 56.0352 22.7429H58.9258C59.8964 24.0071 60.6161 25.3802 61.0849 26.8622C61.5584 28.3442 61.7951 29.9659 61.7951 31.7273ZM70.19 30.6335V28.1051H79.9982V30.6335H70.19ZM70.19 35.3494V32.821H79.9982V35.3494H70.19ZM83.7837 30.6335V28.1051H93.592V30.6335H83.7837ZM83.7837 35.3494V32.821H93.592V35.3494H83.7837ZM107.624 24.4545V39H104.549V27.3736H104.464L101.133 29.4616V26.7344L104.734 24.4545H107.624ZM116.784 39.3196C115.563 39.3149 114.512 39.0142 113.631 38.4176C112.755 37.821 112.08 36.9569 111.607 35.8253C111.138 34.6937 110.906 33.3324 110.911 31.7415C110.911 30.1553 111.145 28.8035 111.614 27.6861C112.087 26.5687 112.762 25.7187 113.638 25.1364C114.519 24.5492 115.568 24.2557 116.784 24.2557C118.001 24.2557 119.048 24.5492 119.924 25.1364C120.804 25.7235 121.481 26.5758 121.955 27.6932C122.428 28.8059 122.663 30.1553 122.658 31.7415C122.658 33.3371 122.421 34.7008 121.948 35.8324C121.479 36.964 120.807 37.8281 119.931 38.4247C119.055 39.0213 118.006 39.3196 116.784 39.3196ZM116.784 36.7699C117.618 36.7699 118.283 36.3509 118.78 35.5128C119.277 34.6747 119.524 33.4176 119.519 31.7415C119.519 30.6383 119.405 29.7197 119.178 28.9858C118.955 28.2519 118.638 27.7003 118.226 27.331C117.819 26.9616 117.338 26.777 116.784 26.777C115.956 26.777 115.293 27.1913 114.796 28.0199C114.299 28.8485 114.048 30.089 114.043 31.7415C114.043 32.8589 114.154 33.7917 114.377 34.5398C114.604 35.2831 114.924 35.8419 115.336 36.2159C115.748 36.5852 116.23 36.7699 116.784 36.7699ZM130.19 30.6335V28.1051H139.998V30.6335H130.19ZM130.19 35.3494V32.821H139.998V35.3494H130.19ZM39.8509 63.1989C38.8471 63.1989 37.9522 63.0142 37.1662 62.6449C36.3849 62.2756 35.7647 61.7666 35.3054 61.1179C34.8461 60.4692 34.607 59.7259 34.5881 58.8878H37.571C37.6042 59.4512 37.8409 59.9081 38.2812 60.2585C38.7216 60.6089 39.2448 60.7841 39.8509 60.7841C40.3338 60.7841 40.7599 60.6776 41.1293 60.4645C41.5033 60.2467 41.7945 59.946 42.0028 59.5625C42.2159 59.1742 42.3224 58.7292 42.3224 58.2273C42.3224 57.7159 42.2135 57.2661 41.9957 56.8778C41.7827 56.4896 41.4867 56.1866 41.108 55.9688C40.7292 55.7509 40.2959 55.6397 39.8082 55.6349C39.3821 55.6349 38.9678 55.7225 38.5653 55.8977C38.1676 56.0729 37.8575 56.312 37.6349 56.6151L34.9006 56.125L35.5895 48.4545H44.4815V50.9688H38.125L37.7486 54.6122H37.8338C38.0895 54.2524 38.4754 53.9541 38.9915 53.7173C39.5076 53.4806 40.0852 53.3622 40.7244 53.3622C41.6004 53.3622 42.3816 53.5682 43.0682 53.9801C43.7547 54.392 44.2969 54.9579 44.6946 55.6776C45.0923 56.3925 45.2888 57.2164 45.2841 58.1491C45.2888 59.1293 45.0616 60.0005 44.6023 60.7628C44.1477 61.5204 43.5109 62.117 42.6918 62.5526C41.8774 62.9834 40.9304 63.1989 39.8509 63.1989ZM52.6758 57.0696V54.5696L62.6758 50.1662V53.0426L55.8292 55.7912L55.9215 55.642V55.9972L55.8292 55.848L62.6758 58.5966V61.473L52.6758 57.0696ZM75.593 63.1989C74.5893 63.1989 73.6944 63.0142 72.9084 62.6449C72.1271 62.2756 71.5069 61.7666 71.0476 61.1179C70.5883 60.4692 70.3492 59.7259 70.3303 58.8878H73.3132C73.3464 59.4512 73.5831 59.9081 74.0234 60.2585C74.4638 60.6089 74.987 60.7841 75.593 60.7841C76.076 60.7841 76.5021 60.6776 76.8714 60.4645C77.2455 60.2467 77.5367 59.946 77.745 59.5625C77.9581 59.1742 78.0646 58.7292 78.0646 58.2273C78.0646 57.7159 77.9557 57.2661 77.7379 56.8778C77.5249 56.4896 77.2289 56.1866 76.8501 55.9688C76.4714 55.7509 76.0381 55.6397 75.5504 55.6349C75.1243 55.6349 74.71 55.7225 74.3075 55.8977C73.9098 56.0729 73.5997 56.312 73.3771 56.6151L70.6428 56.125L71.3317 48.4545H80.2237V50.9688H73.8672L73.4908 54.6122H73.576C73.8317 54.2524 74.2176 53.9541 74.7337 53.7173C75.2498 53.4806 75.8274 53.3622 76.4666 53.3622C77.3426 53.3622 78.1238 53.5682 78.8104 53.9801C79.4969 54.392 80.0391 54.9579 80.4368 55.6776C80.8345 56.3925 81.031 57.2164 81.0263 58.1491C81.031 59.1293 80.8037 60.0005 80.3445 60.7628C79.8899 61.5204 79.2531 62.117 78.4339 62.5526C77.6196 62.9834 76.6726 63.1989 75.593 63.1989ZM88.5103 54.6335V52.1051H98.3185V54.6335H88.5103ZM88.5103 59.3494V56.821H98.3185V59.3494H88.5103Z" fill="black"/>
<path d="M115.847 2.99006V0.454545H127.793V2.99006H123.34V15H120.3V2.99006H115.847ZM128.571 15V4.09091H131.504V5.99432H131.618C131.816 5.31723 132.15 4.80587 132.619 4.46023C133.088 4.10985 133.627 3.93466 134.238 3.93466C134.39 3.93466 134.553 3.94413 134.728 3.96307C134.904 3.98201 135.057 4.00805 135.19 4.04119V6.72585C135.048 6.68324 134.851 6.64536 134.6 6.61222C134.35 6.57907 134.12 6.5625 133.912 6.5625C133.467 6.5625 133.069 6.65956 132.718 6.85369C132.373 7.04309 132.098 7.30824 131.895 7.64915C131.696 7.99006 131.596 8.38305 131.596 8.82812V15H128.571ZM143.75 10.3551V4.09091H146.776V15H143.871V13.0185H143.757C143.511 13.6577 143.101 14.1714 142.528 14.5597C141.96 14.9479 141.267 15.142 140.447 15.142C139.718 15.142 139.077 14.9763 138.523 14.6449C137.969 14.3134 137.536 13.8423 137.223 13.2315C136.915 12.6207 136.759 11.8892 136.754 11.0369V4.09091H139.78V10.4972C139.785 11.1411 139.957 11.6501 140.298 12.0241C140.639 12.3982 141.096 12.5852 141.669 12.5852C142.034 12.5852 142.375 12.5024 142.692 12.3366C143.009 12.1662 143.265 11.9152 143.459 11.5838C143.658 11.2524 143.755 10.8428 143.75 10.3551ZM154.167 15.2131C153.045 15.2131 152.079 14.9858 151.27 14.5312C150.465 14.072 149.844 13.4233 149.409 12.5852C148.973 11.7424 148.755 10.7457 148.755 9.59517C148.755 8.47301 148.973 7.48816 149.409 6.64062C149.844 5.79309 150.458 5.13258 151.248 4.65909C152.044 4.18561 152.976 3.94886 154.047 3.94886C154.766 3.94886 155.436 4.06487 156.056 4.29688C156.681 4.52415 157.226 4.86742 157.69 5.3267C158.159 5.78598 158.523 6.36364 158.784 7.05966C159.044 7.75095 159.174 8.56061 159.174 9.48864V10.3196H149.963V8.4446H156.326C156.326 8.009 156.232 7.62311 156.042 7.28693C155.853 6.95076 155.59 6.68797 155.254 6.49858C154.922 6.30445 154.537 6.20739 154.096 6.20739C153.637 6.20739 153.23 6.31392 152.875 6.52699C152.524 6.73532 152.25 7.01705 152.051 7.37216C151.852 7.72254 151.75 8.11316 151.745 8.54403V10.3267C151.745 10.8665 151.845 11.3329 152.044 11.7259C152.247 12.1188 152.534 12.4219 152.903 12.6349C153.272 12.848 153.71 12.9545 154.217 12.9545C154.553 12.9545 154.861 12.9072 155.14 12.8125C155.42 12.7178 155.659 12.5758 155.858 12.3864C156.056 12.197 156.208 11.965 156.312 11.6903L159.11 11.875C158.968 12.5473 158.677 13.1345 158.237 13.6364C157.801 14.1335 157.238 14.5218 156.547 14.8011C155.86 15.0758 155.067 15.2131 154.167 15.2131ZM147.234 26.9901V24.4545H159.18V26.9901H154.727V39H151.687V26.9901H147.234ZM159.957 39V28.0909H162.891V29.9943H163.004C163.203 29.3172 163.537 28.8059 164.006 28.4602C164.474 28.1098 165.014 27.9347 165.625 27.9347C165.777 27.9347 165.94 27.9441 166.115 27.9631C166.29 27.982 166.444 28.008 166.577 28.0412V30.7259C166.435 30.6832 166.238 30.6454 165.987 30.6122C165.736 30.5791 165.507 30.5625 165.298 30.5625C164.853 30.5625 164.455 30.6596 164.105 30.8537C163.759 31.0431 163.485 31.3082 163.281 31.6491C163.082 31.9901 162.983 32.383 162.983 32.8281V39H159.957ZM175.137 34.3551V28.0909H178.162V39H175.257V37.0185H175.144C174.898 37.6577 174.488 38.1714 173.915 38.5597C173.347 38.9479 172.653 39.142 171.834 39.142C171.105 39.142 170.463 38.9763 169.909 38.6449C169.355 38.3134 168.922 37.8423 168.61 37.2315C168.302 36.6207 168.146 35.8892 168.141 35.0369V28.0909H171.167V34.4972C171.171 35.1411 171.344 35.6501 171.685 36.0241C172.026 36.3982 172.483 36.5852 173.056 36.5852C173.42 36.5852 173.761 36.5024 174.078 36.3366C174.396 36.1662 174.651 35.9152 174.846 35.5838C175.044 35.2524 175.141 34.8428 175.137 34.3551ZM185.554 39.2131C184.432 39.2131 183.466 38.9858 182.656 38.5312C181.851 38.072 181.231 37.4233 180.795 36.5852C180.36 35.7424 180.142 34.7457 180.142 33.5952C180.142 32.473 180.36 31.4882 180.795 30.6406C181.231 29.7931 181.844 29.1326 182.635 28.6591C183.43 28.1856 184.363 27.9489 185.433 27.9489C186.153 27.9489 186.823 28.0649 187.443 28.2969C188.068 28.5241 188.613 28.8674 189.077 29.3267C189.545 29.786 189.91 30.3636 190.17 31.0597C190.431 31.7509 190.561 32.5606 190.561 33.4886V34.3196H181.349V32.4446H187.713C187.713 32.009 187.618 31.6231 187.429 31.2869C187.24 30.9508 186.977 30.688 186.641 30.4986C186.309 30.3045 185.923 30.2074 185.483 30.2074C185.024 30.2074 184.616 30.3139 184.261 30.527C183.911 30.7353 183.636 31.017 183.438 31.3722C183.239 31.7225 183.137 32.1132 183.132 32.544V34.3267C183.132 34.8665 183.232 35.3329 183.43 35.7259C183.634 36.1188 183.92 36.4219 184.29 36.6349C184.659 36.848 185.097 36.9545 185.604 36.9545C185.94 36.9545 186.248 36.9072 186.527 36.8125C186.806 36.7178 187.045 36.5758 187.244 36.3864C187.443 36.197 187.595 35.965 187.699 35.6903L190.497 35.875C190.355 36.5473 190.064 37.1345 189.624 37.6364C189.188 38.1335 188.625 38.5218 187.933 38.8011C187.247 39.0758 186.454 39.2131 185.554 39.2131ZM106.108 63V48.4545H115.739V50.9901H109.183V54.456H115.099V56.9915H109.183V63H106.108ZM120.724 63.206C120.028 63.206 119.408 63.0852 118.864 62.8438C118.319 62.5975 117.888 62.2353 117.571 61.7571C117.259 61.2741 117.102 60.6728 117.102 59.9531C117.102 59.3471 117.214 58.8381 117.436 58.4261C117.659 58.0142 117.962 57.6828 118.345 57.4318C118.729 57.1809 119.164 56.9915 119.652 56.8636C120.144 56.7358 120.661 56.6458 121.2 56.5938C121.835 56.5275 122.346 56.4659 122.734 56.4091C123.123 56.3475 123.404 56.2576 123.58 56.1392C123.755 56.0208 123.842 55.8456 123.842 55.6136V55.571C123.842 55.1212 123.7 54.7732 123.416 54.527C123.137 54.2808 122.739 54.1577 122.223 54.1577C121.679 54.1577 121.245 54.2784 120.923 54.5199C120.601 54.7566 120.388 55.0549 120.284 55.4148L117.486 55.1875C117.628 54.5246 117.907 53.9517 118.324 53.4688C118.741 52.9811 119.278 52.607 119.936 52.3466C120.599 52.0814 121.366 51.9489 122.237 51.9489C122.843 51.9489 123.423 52.0199 123.977 52.1619C124.536 52.304 125.031 52.5241 125.462 52.8224C125.897 53.1207 126.241 53.5043 126.491 53.973C126.742 54.437 126.868 54.9934 126.868 55.642V63H123.999V61.4872H123.913C123.738 61.8281 123.504 62.1288 123.21 62.3892C122.917 62.6449 122.564 62.8461 122.152 62.9929C121.74 63.1349 121.264 63.206 120.724 63.206ZM121.591 61.1179C122.036 61.1179 122.429 61.0303 122.77 60.8551C123.111 60.6752 123.378 60.4337 123.572 60.1307C123.767 59.8277 123.864 59.4844 123.864 59.1009V57.9432C123.769 58.0047 123.639 58.0616 123.473 58.1136C123.312 58.161 123.13 58.206 122.926 58.2486C122.723 58.2865 122.519 58.322 122.315 58.3551C122.112 58.3835 121.927 58.4096 121.761 58.4332C121.406 58.4853 121.096 58.5682 120.831 58.6818C120.566 58.7955 120.36 58.9493 120.213 59.1435C120.066 59.3329 119.993 59.5696 119.993 59.8537C119.993 60.2656 120.142 60.5805 120.44 60.7983C120.743 61.0114 121.127 61.1179 121.591 61.1179ZM132.241 48.4545V63H129.215V48.4545H132.241ZM143.741 55.2017L140.971 55.3722C140.924 55.1354 140.822 54.9223 140.666 54.733C140.51 54.5388 140.304 54.3849 140.048 54.2713C139.797 54.1529 139.496 54.0938 139.146 54.0938C138.677 54.0938 138.282 54.1932 137.96 54.392C137.638 54.5862 137.477 54.8466 137.477 55.1733C137.477 55.4337 137.581 55.6539 137.789 55.8338C137.998 56.0137 138.355 56.1581 138.862 56.267L140.836 56.6648C141.897 56.8826 142.688 57.233 143.208 57.7159C143.729 58.1989 143.99 58.8333 143.99 59.6193C143.99 60.3343 143.779 60.9616 143.358 61.5014C142.941 62.0412 142.368 62.4626 141.639 62.7656C140.914 63.0639 140.079 63.2131 139.132 63.2131C137.688 63.2131 136.537 62.9124 135.68 62.3111C134.828 61.705 134.328 60.8812 134.181 59.8395L137.157 59.6832C137.247 60.1236 137.465 60.4598 137.811 60.6918C138.156 60.919 138.599 61.0327 139.139 61.0327C139.669 61.0327 140.095 60.9309 140.417 60.7273C140.744 60.5189 140.91 60.2514 140.914 59.9247C140.91 59.6501 140.794 59.4252 140.566 59.25C140.339 59.0701 139.989 58.9328 139.515 58.8381L137.626 58.4616C136.561 58.2486 135.768 57.8793 135.247 57.3537C134.731 56.8281 134.473 56.1581 134.473 55.3438C134.473 54.643 134.662 54.0393 135.041 53.5327C135.424 53.026 135.962 52.6354 136.653 52.3608C137.349 52.0862 138.163 51.9489 139.096 51.9489C140.474 51.9489 141.558 52.2401 142.349 52.8224C143.145 53.4048 143.609 54.1979 143.741 55.2017ZM150.866 63.2131C149.744 63.2131 148.778 62.9858 147.969 62.5312C147.164 62.072 146.544 61.4233 146.108 60.5852C145.672 59.7424 145.455 58.7457 145.455 57.5952C145.455 56.473 145.672 55.4882 146.108 54.6406C146.544 53.7931 147.157 53.1326 147.947 52.6591C148.743 52.1856 149.676 51.9489 150.746 51.9489C151.465 51.9489 152.135 52.0649 152.756 52.2969C153.381 52.5241 153.925 52.8674 154.389 53.3267C154.858 53.786 155.223 54.3636 155.483 55.0597C155.743 55.7509 155.874 56.5606 155.874 57.4886V58.3196H146.662V56.4446H153.026C153.026 56.009 152.931 55.6231 152.741 55.2869C152.552 54.9508 152.289 54.688 151.953 54.4986C151.622 54.3045 151.236 54.2074 150.795 54.2074C150.336 54.2074 149.929 54.3139 149.574 54.527C149.223 54.7353 148.949 55.017 148.75 55.3722C148.551 55.7225 148.449 56.1132 148.445 56.544V58.3267C148.445 58.8665 148.544 59.3329 148.743 59.7259C148.946 60.1188 149.233 60.4219 149.602 60.6349C149.972 60.848 150.41 60.9545 150.916 60.9545C151.252 60.9545 151.56 60.9072 151.839 60.8125C152.119 60.7178 152.358 60.5758 152.557 60.3864C152.756 60.197 152.907 59.965 153.011 59.6903L155.81 59.875C155.668 60.5473 155.376 61.1345 154.936 61.6364C154.5 62.1335 153.937 62.5218 153.246 62.8011C152.559 63.0758 151.766 63.2131 150.866 63.2131Z" fill="#7AAC33"/>
</svg>
