<svg xmlns:xlink="http://www.w3.org/1999/xlink"
    xmlns:ev="http://www.w3.org/2001/xml-events" height="1597" width="3377" viewBox="0 100 3377 1597"
    xmlns="http://www.w3.org/2000/svg">
    <defs/>
    <g transform="translate(5.5,5.5)" id="page1">
        <rect x="0" height="1587" width="3368" fill="none" y="0"/>
        <path stroke="#101843" d="M464.6,102.2L464.6,7.0C464.6,3.1,461.4,.0,457.6,.0L7.0,.0C3.1,.0,.0,3.1,.0,7.0L.0,102.2C.0,106.1,3.1,109.2,7.0,109.2L457.6,109.2C461.4,109.2,464.6,106.1,464.6,102.2z" transform="translate(1433.991000,748.815900)" fill-rule="nonzero" fill="#88b0f5" id="shape1" stroke-width="1"/>
        <path stroke="#101843" d="M251.2,178.3L502.4,89.2L251.2,.0L.0,89.2L251.2,178.3z" transform="translate(1415.087000,490.838700)" fill-rule="nonzero" fill="#fbf64e" id="shape2" stroke-width="1"/>
        <path stroke="#101843" d="M.0,93.0C.0,41.6,118.1,.0,263.8,.0C409.4,.0,527.5,41.6,527.5,93.0C527.5,144.4,409.4,186.0,263.8,186.0C118.1,186.0,.0,144.4,.0,93.0z" transform="translate(1402.500000,270.125000)" fill-rule="nonzero" fill="#ff9189" id="shape3" stroke-width="1"/>
        <g transform="translate(1666.270000,669.161000)" id="shape4">
            <path stroke="#191919" d="M.0,.0L.0,73.7" fill="none" stroke-width="1"/>
            <path stroke="#191919" d="M3.0,73.7L.0,79.7L-3.0,73.7L3.0,73.7" fill="#191919" stroke-linecap="round" stroke-width="1"/>
            <rect x="-22.7" height="27.0" width="47.5" fill="#ffffff" y="26.3"/>
            <text style="fill:#191919;font-family:Arial Black,PingFang SC,Mircrosoft YaHei,Arial;font-size:14.00pt" xml:space="preserve">
                <tspan style="font-family:Arial Black,PingFang SC,Mircrosoft YaHei,Arial" x="-22.7" y="48.3">True</tspan>
            </text>
        </g>
        <g transform="translate(1388.085000,520.610000)" id="shape5">
            <text style="fill:#191919;font-family:Arial Black,PingFang SC,Mircrosoft YaHei,Arial;font-size:18.00pt" xml:space="preserve">
                <tspan style="font-family:Arial Black,PingFang SC,Mircrosoft YaHei,Arial" x="264.9" y="36.5">If </tspan>
                <tspan style="font-family:Arial Black,PingFang SC,Mircrosoft YaHei,Arial" x="62.4" y="70.5">(pepperoni_price &lt;= your_money)</tspan>
            </text>
        </g>
        <g transform="translate(1433.990000,728.921500)" id="shape6">
            <path stroke="#101843" d="M7.0,.0L457.6,.0C461.4,.0,464.6,3.1,464.6,7.0L464.6,128.6C464.6,132.5,461.4,135.6,457.6,135.6L7.0,135.6C3.1,135.6,.0,132.5,.0,128.6L.0,7.0C.0,3.1,3.1,.0,7.0,.0z" fill-rule="nonzero" fill="#90d6ab" stroke-width="1"/>
            <text style="fill:#191919;font-family:Arial Black,PingFang SC,Mircrosoft YaHei,Arial;font-size:16.00pt" xml:space="preserve">
                <tspan style="font-family:Arial Black,PingFang SC,Mircrosoft YaHei,Arial" x="14.2" y="32.0">print("Yes, you have enough money to </tspan>
                <tspan style="font-family:Arial Black,PingFang SC,Mircrosoft YaHei,Arial" x="95.2" y="62.0">buy a pepperoni pizza!")</tspan>
                <tspan style="font-family:Arial Black,PingFang SC,Mircrosoft YaHei,Arial" x="77.3" y="92.0">rest_money = your_money - </tspan>
                <tspan style="font-family:Arial Black,PingFang SC,Mircrosoft YaHei,Arial" x="140.7" y="122.0">pepperoni_price</tspan>
            </text>
        </g>
        <g transform="translate(1666.270000,456.115000)" id="shape7">
            <path stroke="#191919" d="M.0,.0L.0,27.8" fill="none" stroke-width="1"/>
            <path stroke="#191919" d="M3.0,27.8L.0,33.8L-3.0,27.8L3.0,27.8" fill="#191919" stroke-linecap="round" stroke-width="1"/>
        </g>
        <g transform="translate(1421.152000,270.124500)" id="shape8">
            <text style="fill:#191919;font-family:Arial Black,PingFang SC,Mircrosoft YaHei,Arial;font-size:19.00pt" xml:space="preserve">
                <tspan style="font-family:Arial Black,PingFang SC,Mircrosoft YaHei,Arial" x="133.6" y="46.5">your_money = 16</tspan>
                <tspan style="font-family:Arial Black,PingFang SC,Mircrosoft YaHei,Arial" x="105.9" y="82.5">pepperoni_price = 11</tspan>
                <tspan style="font-family:Arial Black,PingFang SC,Mircrosoft YaHei,Arial" x="148.9" y="118.5">cake_price = 3</tspan>
                <tspan style="font-family:Arial Black,PingFang SC,Mircrosoft YaHei,Arial" x="143.4" y="154.5">donut_price = 2</tspan>
            </text>
        </g>
        <g transform="translate(1961.961000,735.420400)" id="shape9">
            <path stroke="#101843" d="M7.0,.0L457.6,.0C461.4,.0,464.6,3.1,464.6,7.0L464.6,115.6C464.6,119.5,461.4,122.6,457.6,122.6L7.0,122.6C3.1,122.6,.0,119.5,.0,115.6L.0,7.0C.0,3.1,3.1,.0,7.0,.0z" fill-rule="nonzero" fill="#90d6ab" stroke-width="1"/>
            <text style="fill:#191919;font-family:Arial Black,PingFang SC,Mircrosoft YaHei,Arial;font-size:16.00pt" xml:space="preserve">
                <tspan style="font-family:Arial Black,PingFang SC,Mircrosoft YaHei,Arial" x="30.0" y="55.5">print("Sorry, you don't have enough </tspan>
                <tspan style="font-family:Arial Black,PingFang SC,Mircrosoft YaHei,Arial" x="38.7" y="85.5">money to buy a pepperoni pizza!")</tspan>
            </text>
        </g>
        <g transform="translate(1917.450000,580.000000)" id="shape10">
            <path stroke="#191919" d="M.0,.0L282.1,.0L282.1,149.4" fill="none" stroke-width="1"/>
            <path stroke="#191919" d="M285.1,149.4L282.1,155.4L279.1,149.4L285.1,149.4" fill="#191919" stroke-linecap="round" stroke-width="1"/>
            <rect x="97.0" height="27.0" width="55.9" fill="#ffffff" y="-13.5"/>
            <text style="fill:#191919;font-family:Arial Black,PingFang SC,Mircrosoft YaHei,Arial;font-size:14.00pt" xml:space="preserve">
                <tspan style="font-family:Arial Black,PingFang SC,Mircrosoft YaHei,Arial" x="97.0" y="8.5">False</tspan>
            </text>
        </g>
        <path stroke="#101843" d="M.0,58.5C.0,26.2,77.0,.0,172.0,.0C267.0,.0,344.0,26.2,344.0,58.5C344.0,90.8,267.0,117.0,172.0,117.0C77.0,117.0,.0,90.8,.0,58.5z" transform="translate(1496.062200,1433.005000)" fill-rule="nonzero" fill="#ff9189" id="shape11" stroke-width="1"/>
        <path stroke="#101843" d="M251.2,178.3L502.4,89.2L251.2,.0L.0,89.2L251.2,178.3z" transform="translate(1415.087000,944.998700)" fill-rule="nonzero" fill="#fbf64e" id="shape12" stroke-width="1"/>
        <g transform="translate(1379.295000,967.605000)" id="shape13">
            <text style="fill:#191919;font-family:Arial Black,PingFang SC,Mircrosoft YaHei,Arial;font-size:20.00pt" xml:space="preserve">
                <tspan style="font-family:Arial Black,PingFang SC,Mircrosoft YaHei,Arial" x="272.0" y="39.1">If </tspan>
                <tspan style="font-family:Arial Black,PingFang SC,Mircrosoft YaHei,Arial" x="75.1" y="78.1">(cake_price + donut_price &lt;= </tspan>
                <tspan style="font-family:Arial Black,PingFang SC,Mircrosoft YaHei,Arial" x="197.0" y="117.1">rest_money)</tspan>
            </text>
        </g>
        <path stroke="#101843" d="M464.6,102.2L464.6,7.0C464.6,3.1,461.4,.0,457.6,.0L7.0,.0C3.1,.0,.0,3.1,.0,7.0L.0,102.2C.0,106.1,3.1,109.2,7.0,109.2L457.6,109.2C461.4,109.2,464.6,106.1,464.6,102.2z" transform="translate(1433.991000,1222.396900)" fill-rule="nonzero" fill="#88b0f5" id="shape14" stroke-width="1"/>
        <g transform="translate(1433.990000,1184.499500)" id="shape15">
            <path stroke="#101843" d="M7.0,.0L457.6,.0C461.4,.0,464.6,3.1,464.6,7.0L464.6,164.6C464.6,168.5,461.4,171.6,457.6,171.6L7.0,171.6C3.1,171.6,.0,168.5,.0,164.6L.0,7.0C.0,3.1,3.1,.0,7.0,.0z" fill-rule="nonzero" fill="#90d6ab" stroke-width="1"/>
            <text style="fill:#191919;font-family:Arial Black,PingFang SC,Mircrosoft YaHei,Arial;font-size:20.00pt" xml:space="preserve">
                <tspan style="font-family:Arial Black,PingFang SC,Mircrosoft YaHei,Arial" x="24.6" y="38.8">print("Yes, you have enough </tspan>
                <tspan style="font-family:Arial Black,PingFang SC,Mircrosoft YaHei,Arial" x="86.1" y="77.8">rest money to buy a </tspan>
                <tspan style="font-family:Arial Black,PingFang SC,Mircrosoft YaHei,Arial" x="66.6" y="116.8">strawberry cake and a </tspan>
                <tspan style="font-family:Arial Black,PingFang SC,Mircrosoft YaHei,Arial" x="173.8" y="155.8">donut!")</tspan>
            </text>
        </g>
        <g transform="translate(1666.270000,858.022000)" id="shape16">
            <path stroke="#191919" d="M.0,.0L.0,80.0" fill="none" stroke-width="1"/>
            <path stroke="#191919" d="M3.0,80.0L.0,86.0L-3.0,80.0L3.0,80.0" fill="#191919" stroke-linecap="round" stroke-width="1"/>
        </g>
        <g transform="translate(1666.270000,1123.320000)" id="shape17">
            <path stroke="#191919" d="M.0,.0L.0,55.0" fill="none" stroke-width="1"/>
            <path stroke="#191919" d="M3.0,55.0L.0,61.0L-3.0,55.0L3.0,55.0" fill="#191919" stroke-linecap="round" stroke-width="1"/>
            <rect x="-22.7" height="27.0" width="47.5" fill="#ffffff" y="17.0"/>
            <text style="fill:#191919;font-family:Arial Black,PingFang SC,Mircrosoft YaHei,Arial;font-size:14.00pt" xml:space="preserve">
                <tspan style="font-family:Arial Black,PingFang SC,Mircrosoft YaHei,Arial" x="-22.7" y="39.0">True</tspan>
            </text>
        </g>
        <g transform="translate(1668.071736,1356.100500)" id="shape18">
            <path stroke="#191919" d="M.0,.0L-0.0,70.0" fill="none" stroke-width="1"/>
            <path stroke="#191919" d="M3.0,70.0L-0.0,76.0L-3.0,70.0L3.0,70.0" fill="#191919" stroke-linecap="round" stroke-width="1"/>
        </g>
        <g transform="translate(2199.196649,858.021400)" id="shape19">
            <path stroke="#191919" d="M.0,.0L.0,542.9L-525.1,542.9" fill="none" stroke-width="1"/>
            <path stroke="#191919" d="M-525.1,545.9L-531.1,542.9L-525.1,539.9L-525.1,545.9" fill="#191919" stroke-linecap="round" stroke-width="1"/>
        </g>
        <g transform="translate(871.240000,1195.999500)" id="shape20">
            <path stroke="#101843" d="M7.0,.0L457.6,.0C461.4,.0,464.6,3.1,464.6,7.0L464.6,128.6C464.6,132.5,461.4,135.6,457.6,135.6L7.0,135.6C3.1,135.6,.0,132.5,.0,128.6L.0,7.0C.0,3.1,3.1,.0,7.0,.0z" fill-rule="nonzero" fill="#90d6ab" stroke-width="1"/>
            <text style="fill:#191919;font-family:Arial Black,PingFang SC,Mircrosoft YaHei,Arial;font-size:16.00pt" xml:space="preserve">
                <tspan style="font-family:Arial Black,PingFang SC,Mircrosoft YaHei,Arial" x="22.4" y="47.0">print("Sorry, the rest of money is not </tspan>
                <tspan style="font-family:Arial Black,PingFang SC,Mircrosoft YaHei,Arial" x="8.4" y="77.0">enough to buy a strawberry cake and a </tspan>
                <tspan style="font-family:Arial Black,PingFang SC,Mircrosoft YaHei,Arial" x="186.8" y="107.0">donut.")</tspan>
            </text>
        </g>
        <g transform="translate(1415.090000,1034.160000)" id="shape21">
            <path stroke="#191919" d="M.0,.0L-311.3,.0L-311.3,155.8" fill="none" stroke-width="1"/>
            <path stroke="#191919" d="M-308.3,155.8L-311.3,161.8L-314.3,155.8L-308.3,155.8" fill="#191919" stroke-linecap="round" stroke-width="1"/>
            <rect x="-169.7" height="27.0" width="55.9" fill="#ffffff" y="-13.5"/>
            <text style="fill:#191919;font-family:Arial Black,PingFang SC,Mircrosoft YaHei,Arial;font-size:14.00pt" xml:space="preserve">
                <tspan style="font-family:Arial Black,PingFang SC,Mircrosoft YaHei,Arial" x="-169.7" y="8.5">False</tspan>
            </text>
        </g>
        <g transform="translate(1100.816146,1331.600500)" id="shape22">
            <path stroke="#191919" d="M.0,.0L.0,159.5L389.2,159.5" fill="none" stroke-width="1"/>
            <path stroke="#191919" d="M389.2,156.5L395.2,159.5L389.2,162.5L389.2,156.5" fill="#191919" stroke-linecap="round" stroke-width="1"/>
        </g>
        <g transform="translate(1608.070200,1464.065000)" id="shape23">
            <text style="fill:#191919;font-family:Arial Black,PingFang SC,Mircrosoft YaHei,Arial;font-size:20.00pt" xml:space="preserve">
                <tspan style="font-family:Arial Black,PingFang SC,Mircrosoft YaHei,Arial" x="32.3" y="38.9">End</tspan>
            </text>
        </g>
    </g>
</svg>