<svg xmlns:xlink="http://www.w3.org/1999/xlink"
    xmlns:ev="http://www.w3.org/2001/xml-events" height="1597" width="2255" viewBox="0 200 2255 1597"
    xmlns="http://www.w3.org/2000/svg">
    <defs/>
    <g transform="translate(5.5,5.5)" id="page1">
        <rect x="0" height="1587" width="2245" fill="none" y="0"/>
        <path stroke="#101843" d="M464.6,102.2L464.6,7.0C464.6,3.1,461.4,.0,457.6,.0L7.0,.0C3.1,.0,.0,3.1,.0,7.0L.0,102.2C.0,106.1,3.1,109.2,7.0,109.2L457.6,109.2C461.4,109.2,464.6,106.1,464.6,102.2z" transform="translate(311.471000,748.815900)" fill-rule="nonzero" fill="#88b0f5" id="shape1" stroke-width="1"/>
        <path stroke="#101843" d="M251.2,178.3L502.4,89.2L251.2,.0L.0,89.2L251.2,178.3z" transform="translate(292.567000,490.838700)" fill-rule="nonzero" fill="#fbf64e" id="shape2" stroke-width="1"/>
        <path stroke="#101843" d="M.0,116.1C.0,52.0,123.3,.0,275.4,.0C427.5,.0,550.7,52.0,550.7,116.1C550.7,180.2,427.5,232.1,275.4,232.1C123.3,232.1,.0,180.2,.0,116.1z" transform="translate(268.378000,223.974000)" fill-rule="nonzero" fill="#ff9189" id="shape3" stroke-width="1"/>
        <g transform="translate(543.750000,669.161000)" id="shape4">
            <path stroke="#191919" d="M.0,.0L.0,73.7" fill="none" stroke-width="1"/>
            <path stroke="#191919" d="M3.0,73.7L.0,79.7L-3.0,73.7L3.0,73.7" fill="#191919" stroke-linecap="round" stroke-width="1"/>
            <rect x="-22.7" height="27.0" width="47.5" fill="#ffffff" y="26.3"/>
            <text style="fill:#191919;font-family:Arial Black,PingFang SC,Mircrosoft YaHei,Arial;font-size:14.00pt" xml:space="preserve">
                <tspan style="font-family:Arial Black,PingFang SC,Mircrosoft YaHei,Arial" x="-22.7" y="48.3">True</tspan>
            </text>
        </g>
        <g transform="translate(265.565000,520.610000)" id="shape5">
            <text style="fill:#191919;font-family:Arial Black,PingFang SC,Mircrosoft YaHei,Arial;font-size:18.00pt" xml:space="preserve">
                <tspan style="font-family:Arial Black,PingFang SC,Mircrosoft YaHei,Arial" x="264.9" y="36.5">If </tspan>
                <tspan style="font-family:Arial Black,PingFang SC,Mircrosoft YaHei,Arial" x="136.4" y="70.5">(total &lt;= your_money)</tspan>
            </text>
        </g>
        <g transform="translate(311.470000,728.921500)" id="shape6">
            <path stroke="#101843" d="M7.0,.0L457.6,.0C461.4,.0,464.6,3.1,464.6,7.0L464.6,128.6C464.6,132.5,461.4,135.6,457.6,135.6L7.0,135.6C3.1,135.6,.0,132.5,.0,128.6L.0,7.0C.0,3.1,3.1,.0,7.0,.0z" fill-rule="nonzero" fill="#90d6ab" stroke-width="1"/>
            <text style="fill:#191919;font-family:Arial Black,PingFang SC,Mircrosoft YaHei,Arial;font-size:16.00pt" xml:space="preserve">
                <tspan style="font-family:Arial Black,PingFang SC,Mircrosoft YaHei,Arial" x="30.5" y="62.0">print("Yes, you can buy a spaghetti </tspan>
                <tspan style="font-family:Arial Black,PingFang SC,Mircrosoft YaHei,Arial" x="26.5" y="92.0">pasta, a burger, and an ice-cream!")</tspan>
            </text>
        </g>
        <g transform="translate(543.750500,456.115000)" id="shape7">
            <path stroke="#191919" d="M.0,.0L-0.0,27.8" fill="none" stroke-width="1"/>
            <path stroke="#191919" d="M3.0,27.8L-0.0,33.8L-3.0,27.8L3.0,27.8" fill="#191919" stroke-linecap="round" stroke-width="1"/>
        </g>
        <g transform="translate(298.636000,223.974000)" id="shape8">
            <text style="fill:#191919;font-family:Arial Black,PingFang SC,Mircrosoft YaHei,Arial;font-size:19.00pt" xml:space="preserve">
                <tspan style="font-family:Arial Black,PingFang SC,Mircrosoft YaHei,Arial" x="142.0" y="37.1">your_money = 9</tspan>
                <tspan style="font-family:Arial Black,PingFang SC,Mircrosoft YaHei,Arial" x="137.8" y="73.1">burger_price = 5</tspan>
                <tspan style="font-family:Arial Black,PingFang SC,Mircrosoft YaHei,Arial" x="144.1" y="109.1">pasta_price = 3</tspan>
                <tspan style="font-family:Arial Black,PingFang SC,Mircrosoft YaHei,Arial" x="112.1" y="145.1">ice_cream_price = 3</tspan>
                <tspan style="font-family:Arial Black,PingFang SC,Mircrosoft YaHei,Arial" x="6.1" y="181.1">total = burger_price + pasta_price + </tspan>
                <tspan style="font-family:Arial Black,PingFang SC,Mircrosoft YaHei,Arial" x="137.1" y="217.1">ice_cream_price</tspan>
            </text>
        </g>
        <g transform="translate(839.441000,735.420400)" id="shape9">
            <path stroke="#101843" d="M7.0,.0L457.6,.0C461.4,.0,464.6,3.1,464.6,7.0L464.6,115.6C464.6,119.5,461.4,122.6,457.6,122.6L7.0,122.6C3.1,122.6,.0,119.5,.0,115.6L.0,7.0C.0,3.1,3.1,.0,7.0,.0z" fill-rule="nonzero" fill="#90d6ab" stroke-width="1"/>
            <text style="fill:#191919;font-family:Arial Black,PingFang SC,Mircrosoft YaHei,Arial;font-size:16.00pt" xml:space="preserve">
                <tspan style="font-family:Arial Black,PingFang SC,Mircrosoft YaHei,Arial" x="30.0" y="40.5">print("Sorry, you don't have enough </tspan>
                <tspan style="font-family:Arial Black,PingFang SC,Mircrosoft YaHei,Arial" x="9.0" y="70.5">money to buy a pasta, a burger, and an </tspan>
                <tspan style="font-family:Arial Black,PingFang SC,Mircrosoft YaHei,Arial" x="162.3" y="100.5">ice-cream.")</tspan>
            </text>
        </g>
        <g transform="translate(794.930000,580.000000)" id="shape10">
            <path stroke="#191919" d="M.0,.0L282.1,.0L282.1,149.4" fill="none" stroke-width="1"/>
            <path stroke="#191919" d="M285.1,149.4L282.1,155.4L279.1,149.4L285.1,149.4" fill="#191919" stroke-linecap="round" stroke-width="1"/>
            <rect x="97.0" height="27.0" width="55.9" fill="#ffffff" y="-13.5"/>
            <text style="fill:#191919;font-family:Arial Black,PingFang SC,Mircrosoft YaHei,Arial;font-size:14.00pt" xml:space="preserve">
                <tspan style="font-family:Arial Black,PingFang SC,Mircrosoft YaHei,Arial" x="97.0" y="8.5">False</tspan>
            </text>
        </g>
        <path stroke="#101843" d="M.0,105.5C.0,47.2,123.3,.0,275.4,.0C427.5,.0,550.7,47.2,550.7,105.5C550.7,163.8,427.5,211.0,275.4,211.0C123.3,211.0,.0,163.8,.0,105.5z" transform="translate(268.378000,1055.005000)" fill-rule="nonzero" fill="#ff9189" id="shape11" stroke-width="1"/>
        <g transform="translate(483.749500,1122.065000)" id="shape12">
            <text style="fill:#191919;font-family:Arial Black,PingFang SC,Mircrosoft YaHei,Arial;font-size:32.00pt" xml:space="preserve">
                <tspan style="font-family:Arial Black,PingFang SC,Mircrosoft YaHei,Arial" x="15.8" y="55.9">End</tspan>
            </text>
        </g>
        <g transform="translate(543.750000,858.021900)" id="shape13">
            <path stroke="#191919" d="M.0,.0L.0,191.0" fill="none" stroke-width="1"/>
            <path stroke="#191919" d="M3.0,191.0L.0,197.0L-3.0,191.0L3.0,191.0" fill="#191919" stroke-linecap="round" stroke-width="1"/>
        </g>
        <g transform="translate(1074.874413,858.021400)" id="shape14">
            <path stroke="#191919" d="M.0,.0L.0,100.4L-525.1,100.4" fill="none" stroke-width="1"/>
            <path stroke="#191919" d="M-525.1,103.4L-531.1,100.4L-525.1,97.4L-525.1,103.4" fill="#191919" stroke-linecap="round" stroke-width="1"/>
        </g>
    </g>
</svg>