<svg height="804" xmlns:ev="http://www.w3.org/2001/xml-events" viewBox="0 0 1132 804" width="1132" xmlns="http://www.w3.org/2000/svg" xmlns:xlink="http://www.w3.org/1999/xlink"><defs/><g transform="translate(5.5,5.5)" id="page1"><rect fill="none" y="0" height="794" x="0" width="1123"/><g transform="translate(507.106000,131.999700)" id="shape1"><path fill="#ff9189" stroke-width="1" d="M66.7,133.4L155.6,133.4L155.6,133.4C192.4,133.4,222.3,103.5,222.3,66.7C222.3,29.9,192.4,.0,155.6,.0L66.7,.0L66.7,.0C29.9,.0,.0,29.9,.0,66.7C.0,103.5,29.9,133.4,66.7,133.4z" fill-rule="nonzero" stroke="#101843"/><text xml:space="preserve" style="fill:#191919;font-family:Times New Roman,PingFang SC,Mircrosoft YaHei,Arial;font-size:14.00pt"><tspan y="40.0" style="font-family:Times New Roman,PingFang SC,Mircrosoft YaHei,Arial" x="64.7">#Record the </tspan><tspan y="62.0" style="font-family:Times New Roman,PingFang SC,Mircrosoft YaHei,Arial" x="38.7">progress of feeding </tspan><tspan y="84.0" style="font-family:Times New Roman,PingFang SC,Mircrosoft YaHei,Arial" x="41.2">the goats five cups </tspan><tspan y="106.0" style="font-family:Times New Roman,PingFang SC,Mircrosoft YaHei,Arial" x="80.2">of food.</tspan></text></g><g transform="translate(434.916000,315.546500)" id="shape2"><path fill="#fdff85" stroke-width="1" d="M183.3,131.9L366.7,65.9L183.3,.0L.0,65.9L183.3,131.9z" fill-rule="nonzero" stroke="#101843"/><text xml:space="preserve" style="fill:#191919;font-family:Times New Roman,PingFang SC,Mircrosoft YaHei,Arial;font-size:14.00pt"><tspan y="71.9" style="font-family:Times New Roman,PingFang SC,Mircrosoft YaHei,Arial" x="69.3">for cup_number in range(0, 5):</tspan></text></g><g transform="translate(479.666000,537.000000)" id="shape3"><path fill="#90d6ab" stroke-width="1" d="M277.2,87.0L277.2,7.0C277.2,3.1,274.1,.0,270.2,.0L7.0,.0C3.1,.0,.0,3.1,.0,7.0L.0,87.0C.0,90.8,3.1,94.0,7.0,94.0L270.2,94.0C274.1,94.0,277.2,90.8,277.2,87.0z" fill-rule="nonzero" stroke="#000000"/><text xml:space="preserve" style="fill:#191919;font-family:Times New Roman,PingFang SC,Mircrosoft YaHei,Arial;font-size:14.00pt"><tspan y="53.0" style="font-family:Times New Roman,PingFang SC,Mircrosoft YaHei,Arial" x="23.6">print(''Fed baby goats a cup!'')</tspan></text></g><g transform="translate(618.260000,265.385000)" id="shape4"><path fill="none" stroke-width="1" d="M.0,.0L-0.0,44.2" stroke="#191919"/><path stroke-linecap="round" fill="#191919" stroke-width="1" d="M3.0,44.2L-0.0,50.2L-3.0,44.2L3.0,44.2" stroke="#191919"/></g><g transform="translate(618.260000,447.421000)" id="shape5"><path fill="none" stroke-width="1" d="M.0,.0L.0,83.6" stroke="#000000"/><path stroke-linecap="round" fill="#000000" stroke-width="1" d="M3.0,83.6L.0,89.6L-3.0,83.6L3.0,83.6" stroke="#000000"/><rect fill="#ffffff" y="33.8" height="22.0" x="-16.0" width="34.0"/><text xml:space="preserve" style="fill:#191919;font-family:Times New Roman,PingFang SC,Mircrosoft YaHei,Arial;font-size:14.00pt"><tspan y="50.8" style="font-family:Times New Roman,PingFang SC,Mircrosoft YaHei,Arial" x="-16.0">True</tspan></text></g><g transform="translate(756.853000,583.985000)" id="shape6"><path fill="none" stroke-width="1" d="M.0,.0L121.6,.0L121.6,-202.5L50.8,-202.5" stroke="#191919"/><path stroke-linecap="round" fill="#191919" stroke-width="1" d="M50.8,-199.5L44.8,-202.5L50.8,-205.5L50.8,-199.5" stroke="#191919"/><rect fill="#ffffff" y="-124.0" height="32.0" x="27.6" width="190.0"/><text xml:space="preserve" style="fill:#191919;font-family:Times New Roman,PingFang SC,Mircrosoft YaHei,Arial;font-size:20.00pt;font-weight:bold"><tspan y="-98.0" style="font-family:Times New Roman,PingFang SC,Mircrosoft YaHei,Arial" x="27.6">cup_number + 1</tspan></text></g><g transform="translate(434.916000,381.484000)" id="shape7"><path fill="none" stroke-width="1" d="M.0,.0L-124.9,.0" stroke="#191919"/><path stroke-linecap="round" fill="#191919" stroke-width="1" d="M-124.9,3.0L-130.9,.0L-124.9,-3.0L-124.9,3.0" stroke="#191919"/><rect fill="#ffffff" y="-11.0" height="22.0" x="-84.0" width="39.0"/><text xml:space="preserve" style="fill:#191919;font-family:Times New Roman,PingFang SC,Mircrosoft YaHei,Arial;font-size:14.00pt"><tspan y="6.0" style="font-family:Times New Roman,PingFang SC,Mircrosoft YaHei,Arial" x="-84.0">False</tspan></text></g><g transform="translate(204.000000,359.484000)" id="shape8"><path fill="#ff9189" stroke-width="1" d="M22.0,44.0L78.0,44.0L78.0,44.0C90.2,44.0,100.0,34.2,100.0,22.0C100.0,9.8,90.2,.0,78.0,.0L22.0,.0L22.0,.0C9.8,.0,.0,9.8,.0,22.0C.0,34.2,9.8,44.0,22.0,44.0z" fill-rule="nonzero" stroke="#101843"/><text xml:space="preserve" style="fill:#191919;font-family:Times New Roman,PingFang SC,Mircrosoft YaHei,Arial;font-size:14.00pt"><tspan y="28.0" style="font-family:Times New Roman,PingFang SC,Mircrosoft YaHei,Arial" x="35.0">End</tspan></text></g></g></svg>