<svg xmlns:xlink="http://www.w3.org/1999/xlink"
    xmlns:ev="http://www.w3.org/2001/xml-events" viewBox="0 0 2255 1597"
    xmlns="http://www.w3.org/2000/svg">
    <defs/>
    <g transform="translate(5.5,5.5)" id="page1">
        <rect x="0" height="1587" width="2245" fill="none" y="0"/>
        <path stroke="#101843" d="M464.6,102.2L464.6,7.0C464.6,3.1,461.4,.0,457.6,.0L7.0,.0C3.1,.0,.0,3.1,.0,7.0L.0,102.2C.0,106.1,3.1,109.2,7.0,109.2L457.6,109.2C461.4,109.2,464.6,106.1,464.6,102.2z" transform="translate(677.426000,790.130900)" fill-rule="nonzero" fill="#88b0f5" id="shape1" stroke-width="1"/>
        <path stroke="#101843" d="M251.2,178.3L502.4,89.2L251.2,.0L.0,89.2L251.2,178.3z" transform="translate(658.522000,532.153700)" fill-rule="nonzero" fill="#fbf64e" id="shape2" stroke-width="1"/>
        <path stroke="#101843" d="M.0,57.1C.0,25.6,72.5,.0,161.9,.0C251.3,.0,323.8,25.6,323.8,57.1C323.8,88.6,251.3,114.1,161.9,114.1C72.5,114.1,.0,88.6,.0,57.1z" transform="translate(747.820000,334.696700)" fill-rule="nonzero" fill="#ff9189" id="shape3" stroke-width="1"/>
        <g transform="translate(909.705000,710.477000)" id="shape4">
            <path stroke="#191919" d="M.0,.0L.0,73.7" fill="none" stroke-width="1"/>
            <path stroke="#191919" d="M3.0,73.7L.0,79.7L-3.0,73.7L3.0,73.7" fill="#191919" stroke-linecap="round" stroke-width="1"/>
            <rect x="-22.7" height="27.0" width="47.5" fill="#ffffff" y="26.3"/>
            <text style="fill:#191919;font-family:Arial Black,PingFang SC,Mircrosoft YaHei,Arial;font-size:14.00pt" xml:space="preserve">
                <tspan style="font-family:Arial Black,PingFang SC,Mircrosoft YaHei,Arial" x="-22.7" y="48.3">True</tspan>
            </text>
        </g>
        <g transform="translate(631.520000,561.646000)" id="shape5">
            <text style="fill:#191919;font-family:Arial Black,PingFang SC,Mircrosoft YaHei,Arial;font-size:20.00pt" xml:space="preserve">
                <tspan style="font-family:Arial Black,PingFang SC,Mircrosoft YaHei,Arial" x="263.2" y="35.5">If </tspan>
                <tspan style="font-family:Arial Black,PingFang SC,Mircrosoft YaHei,Arial" x="66.9" y="74.5">(donut_price &lt;= your_money)</tspan>
            </text>
        </g>
        <g transform="translate(677.426000,776.736400)" id="shape6">
            <path stroke="#101843" d="M7.0,.0L457.6,.0C461.4,.0,464.6,3.1,464.6,7.0L464.6,115.6C464.6,119.5,461.4,122.6,457.6,122.6L7.0,122.6C3.1,122.6,.0,119.5,.0,115.6L.0,7.0C.0,3.1,3.1,.0,7.0,.0z" fill-rule="nonzero" fill="#90d6ab" stroke-width="1"/>
            <text style="fill:#191919;font-family:Arial Black,PingFang SC,Mircrosoft YaHei,Arial;font-size:18.00pt" xml:space="preserve">
                <tspan style="font-family:Arial Black,PingFang SC,Mircrosoft YaHei,Arial" x="11.7" y="71.5">print("Yes, you can buy a donut!")</tspan>
            </text>
        </g>
        <g transform="translate(909.705000,448.846000)" id="shape7">
            <path stroke="#191919" d="M.0,.0L.0,77.3" fill="none" stroke-width="1"/>
            <path stroke="#191919" d="M3.0,77.3L.0,83.3L-3.0,77.3L3.0,77.3" fill="#191919" stroke-linecap="round" stroke-width="1"/>
        </g>
        <g transform="translate(661.557000,302.700500)" id="shape8">
            <text style="fill:#191919;font-family:Arial Black,PingFang SC,Mircrosoft YaHei,Arial;font-size:18.00pt" xml:space="preserve">
                <tspan style="font-family:Arial Black,PingFang SC,Mircrosoft YaHei,Arial" x="146.2" y="82.5">your_money = 2</tspan>
                <tspan style="font-family:Arial Black,PingFang SC,Mircrosoft YaHei,Arial" x="147.6" y="116.5">donut_price = 2</tspan>
            </text>
        </g>
        <g transform="translate(1205.400000,777.235500)" id="shape9">
            <path stroke="#101843" d="M7.0,.0L457.6,.0C461.4,.0,464.6,3.1,464.6,7.0L464.6,114.6C464.6,118.5,461.4,121.6,457.6,121.6L7.0,121.6C3.1,121.6,.0,118.5,.0,114.6L.0,7.0C.0,3.1,3.1,.0,7.0,.0z" fill-rule="nonzero" fill="#90d6ab" stroke-width="1"/>
            <text style="fill:#191919;font-family:Arial Black,PingFang SC,Mircrosoft YaHei,Arial;font-size:18.00pt" xml:space="preserve">
                <tspan style="font-family:Arial Black,PingFang SC,Mircrosoft YaHei,Arial" x="53.0" y="37.0">print("Sorry, you don't have </tspan>
                <tspan style="font-family:Arial Black,PingFang SC,Mircrosoft YaHei,Arial" x="29.6" y="71.0">enough money to buy a yummy </tspan>
                <tspan style="font-family:Arial Black,PingFang SC,Mircrosoft YaHei,Arial" x="180.3" y="105.0">donut.")</tspan>
            </text>
        </g>
        <g transform="translate(1160.890000,621.315000)" id="shape10">
            <path stroke="#191919" d="M.0,.0L282.2,.0L282.2,149.9" fill="none" stroke-width="1"/>
            <path stroke="#191919" d="M285.2,149.9L282.2,155.9L279.2,149.9L285.2,149.9" fill="#191919" stroke-linecap="round" stroke-width="1"/>
            <rect x="97.1" height="27.0" width="55.9" fill="#ffffff" y="-13.5"/>
            <text style="fill:#191919;font-family:Arial Black,PingFang SC,Mircrosoft YaHei,Arial;font-size:14.00pt" xml:space="preserve">
                <tspan style="font-family:Arial Black,PingFang SC,Mircrosoft YaHei,Arial" x="97.1" y="8.5">False</tspan>
            </text>
        </g>
        <path stroke="#101843" d="M.0,56.0C.0,25.1,73.7,.0,164.6,.0C255.5,.0,329.1,25.1,329.1,56.0C329.1,86.9,255.5,111.9,164.6,111.9C73.7,111.9,.0,86.9,.0,56.0z" transform="translate(745.140000,1056.343700)" fill-rule="nonzero" fill="#ff9189" id="shape11" stroke-width="1"/>
        <g transform="translate(909.705000,899.337000)" id="shape12">
            <path stroke="#191919" d="M.0,.0L.0,151.0" fill="none" stroke-width="1"/>
            <path stroke="#191919" d="M3.0,151.0L.0,157.0L-3.0,151.0L3.0,151.0" fill="#191919" stroke-linecap="round" stroke-width="1"/>
        </g>
        <g transform="translate(1444.880000,898.837000)" id="shape13">
            <path stroke="#191919" d="M.0,.0L.0,80.5L-529.2,80.5" fill="none" stroke-width="1"/>
            <path stroke="#191919" d="M-529.2,83.5L-535.2,80.5L-529.2,77.5L-529.2,83.5" fill="#191919" stroke-linecap="round" stroke-width="1"/>
        </g>
        <g transform="translate(849.705000,1079.372500)" id="shape14">
            <text style="fill:#191919;font-family:Arial Black,PingFang SC,Mircrosoft YaHei,Arial;font-size:26.00pt" xml:space="preserve">
                <tspan style="font-family:Arial Black,PingFang SC,Mircrosoft YaHei,Arial" x="24.0" y="47.9">End</tspan>
            </text>
        </g>
    </g>
</svg>