<svg height="1597" xmlns:ev="http://www.w3.org/2001/xml-events" viewBox="0 0 3377 1597" width="3377" xmlns="http://www.w3.org/2000/svg" xmlns:xlink="http://www.w3.org/1999/xlink"><defs/><g id="page1" transform="translate(5.5,5.5)"><rect height="1587" fill="none" width="3368" y="0" x="0"/><path d="M464.6,102.2L464.6,7.0C464.6,3.1,461.4,.0,457.6,.0L7.0,.0C3.1,.0,.0,3.1,.0,7.0L.0,102.2C.0,106.1,3.1,109.2,7.0,109.2L457.6,109.2C461.4,109.2,464.6,106.1,464.6,102.2z" fill="#88b0f5" stroke="#101843" id="shape1" transform="translate(1433.991000,748.815900)" stroke-width="1" fill-rule="nonzero"/><path d="M251.2,178.3L502.4,89.2L251.2,.0L.0,89.2L251.2,178.3z" fill="#fbf64e" stroke="#101843" id="shape2" transform="translate(1415.087000,490.838700)" stroke-width="1" fill-rule="nonzero"/><path d="M.0,93.0C.0,41.6,118.1,.0,263.8,.0C409.4,.0,527.5,41.6,527.5,93.0C527.5,144.4,409.4,186.0,263.8,186.0C118.1,186.0,.0,144.4,.0,93.0z" fill="#ff9189" stroke="#101843" id="shape3" transform="translate(1402.500000,270.125000)" stroke-width="1" fill-rule="nonzero"/><g id="shape4" transform="translate(1666.270000,669.161000)"><path d="M.0,.0L.0,73.7" stroke="#191919" fill="none" stroke-width="1"/><path d="M3.0,73.7L.0,79.7L-3.0,73.7L3.0,73.7" fill="#191919" stroke="#191919" stroke-linecap="round" stroke-width="1"/><rect height="27.0" fill="#ffffff" width="47.5" y="26.3" x="-22.7"/><text style="fill:#191919;font-family:Arial Black,PingFang SC,Mircrosoft YaHei,Arial;font-size:14.00pt" xml:space="preserve"><tspan style="font-family:Arial Black,PingFang SC,Mircrosoft YaHei,Arial" y="48.3" x="-22.7">True</tspan></text></g><g id="shape5" transform="translate(1388.085000,520.610000)"><text style="fill:#191919;font-family:Arial Black,PingFang SC,Mircrosoft YaHei,Arial;font-size:18.00pt" xml:space="preserve"><tspan style="font-family:Arial Black,PingFang SC,Mircrosoft YaHei,Arial" y="36.5" x="264.9">If </tspan><tspan style="font-family:Arial Black,PingFang SC,Mircrosoft YaHei,Arial" y="70.5" x="62.4">(pepperoni_price &lt;= your_money)</tspan></text></g><g id="shape6" transform="translate(1433.990000,728.921500)"><path d="M7.0,.0L457.6,.0C461.4,.0,464.6,3.1,464.6,7.0L464.6,128.6C464.6,132.5,461.4,135.6,457.6,135.6L7.0,135.6C3.1,135.6,.0,132.5,.0,128.6L.0,7.0C.0,3.1,3.1,.0,7.0,.0z" fill="#90d6ab" stroke="#101843" stroke-width="1" fill-rule="nonzero"/><text style="fill:#191919;font-family:Arial Black,PingFang SC,Mircrosoft YaHei,Arial;font-size:16.00pt" xml:space="preserve"><tspan style="font-family:Arial Black,PingFang SC,Mircrosoft YaHei,Arial" y="32.0" x="14.2">print("Yes, you have enough money to </tspan><tspan style="font-family:Arial Black,PingFang SC,Mircrosoft YaHei,Arial" y="62.0" x="95.2">buy a pepperoni pizza!")</tspan><tspan style="font-family:Arial Black,PingFang SC,Mircrosoft YaHei,Arial" y="92.0" x="77.3">rest_money = your_money - </tspan><tspan style="font-family:Arial Black,PingFang SC,Mircrosoft YaHei,Arial" y="122.0" x="140.7">pepperoni_price</tspan></text></g><g id="shape7" transform="translate(1666.270000,456.115000)"><path d="M.0,.0L.0,27.8" stroke="#191919" fill="none" stroke-width="1"/><path d="M3.0,27.8L.0,33.8L-3.0,27.8L3.0,27.8" fill="#191919" stroke="#191919" stroke-linecap="round" stroke-width="1"/></g><g id="shape8" transform="translate(1421.152000,270.124500)"><text style="fill:#191919;font-family:Arial Black,PingFang SC,Mircrosoft YaHei,Arial;font-size:19.00pt" xml:space="preserve"><tspan style="font-family:Arial Black,PingFang SC,Mircrosoft YaHei,Arial" y="46.5" x="133.6">your_money = 16</tspan><tspan style="font-family:Arial Black,PingFang SC,Mircrosoft YaHei,Arial" y="82.5" x="105.9">pepperoni_price = 11</tspan><tspan style="font-family:Arial Black,PingFang SC,Mircrosoft YaHei,Arial" y="118.5" x="148.9">cake_price = 3</tspan><tspan style="font-family:Arial Black,PingFang SC,Mircrosoft YaHei,Arial" y="154.5" x="143.4">donut_price = 2</tspan></text></g><g id="shape9" transform="translate(1961.961000,735.420400)"><path d="M7.0,.0L457.6,.0C461.4,.0,464.6,3.1,464.6,7.0L464.6,115.6C464.6,119.5,461.4,122.6,457.6,122.6L7.0,122.6C3.1,122.6,.0,119.5,.0,115.6L.0,7.0C.0,3.1,3.1,.0,7.0,.0z" fill="#90d6ab" stroke="#101843" stroke-width="1" fill-rule="nonzero"/><text style="fill:#191919;font-family:Arial Black,PingFang SC,Mircrosoft YaHei,Arial;font-size:16.00pt" xml:space="preserve"><tspan style="font-family:Arial Black,PingFang SC,Mircrosoft YaHei,Arial" y="55.5" x="30.0">print("Sorry, you don't have enough </tspan><tspan style="font-family:Arial Black,PingFang SC,Mircrosoft YaHei,Arial" y="85.5" x="38.7">money to buy a pepperoni pizza!")</tspan></text></g><g id="shape10" transform="translate(1917.450000,580.000000)"><path d="M.0,.0L282.1,.0L282.1,149.4" stroke="#191919" fill="none" stroke-width="1"/><path d="M285.1,149.4L282.1,155.4L279.1,149.4L285.1,149.4" fill="#191919" stroke="#191919" stroke-linecap="round" stroke-width="1"/><rect height="27.0" fill="#ffffff" width="55.9" y="-13.5" x="97.0"/><text style="fill:#191919;font-family:Arial Black,PingFang SC,Mircrosoft YaHei,Arial;font-size:14.00pt" xml:space="preserve"><tspan style="font-family:Arial Black,PingFang SC,Mircrosoft YaHei,Arial" y="8.5" x="97.0">False</tspan></text></g><path d="M251.2,178.3L502.4,89.2L251.2,.0L.0,89.2L251.2,178.3z" fill="#fbf64e" stroke="#101843" id="shape11" transform="translate(1415.087000,944.998700)" stroke-width="1" fill-rule="nonzero"/><g id="shape12" transform="translate(1379.295000,967.605000)"><text style="fill:#191919;font-family:Arial Black,PingFang SC,Mircrosoft YaHei,Arial;font-size:20.00pt" xml:space="preserve"><tspan style="font-family:Arial Black,PingFang SC,Mircrosoft YaHei,Arial" y="39.1" x="272.0">If </tspan><tspan style="font-family:Arial Black,PingFang SC,Mircrosoft YaHei,Arial" y="78.1" x="75.1">(cake_price + donut_price &lt;= </tspan><tspan style="font-family:Arial Black,PingFang SC,Mircrosoft YaHei,Arial" y="117.1" x="197.0">rest_money)</tspan></text></g><path d="M464.6,102.2L464.6,7.0C464.6,3.1,461.4,.0,457.6,.0L7.0,.0C3.1,.0,.0,3.1,.0,7.0L.0,102.2C.0,106.1,3.1,109.2,7.0,109.2L457.6,109.2C461.4,109.2,464.6,106.1,464.6,102.2z" fill="#88b0f5" stroke="#101843" id="shape13" transform="translate(1433.991000,1222.396900)" stroke-width="1" fill-rule="nonzero"/><g id="shape14" transform="translate(1433.990000,1184.499500)"><path d="M7.0,.0L457.6,.0C461.4,.0,464.6,3.1,464.6,7.0L464.6,164.6C464.6,168.5,461.4,171.6,457.6,171.6L7.0,171.6C3.1,171.6,.0,168.5,.0,164.6L.0,7.0C.0,3.1,3.1,.0,7.0,.0z" fill="#90d6ab" stroke="#101843" stroke-width="1" fill-rule="nonzero"/><text style="fill:#191919;font-family:Arial Black,PingFang SC,Mircrosoft YaHei,Arial;font-size:20.00pt" xml:space="preserve"><tspan style="font-family:Arial Black,PingFang SC,Mircrosoft YaHei,Arial" y="38.8" x="24.6">print("Yes, you have enough </tspan><tspan style="font-family:Arial Black,PingFang SC,Mircrosoft YaHei,Arial" y="77.8" x="86.1">rest money to buy a </tspan><tspan style="font-family:Arial Black,PingFang SC,Mircrosoft YaHei,Arial" y="116.8" x="66.6">strawberry cake and a </tspan><tspan style="font-family:Arial Black,PingFang SC,Mircrosoft YaHei,Arial" y="155.8" x="173.8">donut!")</tspan></text></g><g id="shape15" transform="translate(1666.270000,858.022000)"><path d="M.0,.0L.0,80.0" stroke="#191919" fill="none" stroke-width="1"/><path d="M3.0,80.0L.0,86.0L-3.0,80.0L3.0,80.0" fill="#191919" stroke="#191919" stroke-linecap="round" stroke-width="1"/></g><g id="shape16" transform="translate(1666.270000,1123.320000)"><path d="M.0,.0L.0,55.0" stroke="#191919" fill="none" stroke-width="1"/><path d="M3.0,55.0L.0,61.0L-3.0,55.0L3.0,55.0" fill="#191919" stroke="#191919" stroke-linecap="round" stroke-width="1"/><rect height="27.0" fill="#ffffff" width="47.5" y="17.0" x="-22.7"/><text style="fill:#191919;font-family:Arial Black,PingFang SC,Mircrosoft YaHei,Arial;font-size:14.00pt" xml:space="preserve"><tspan style="font-family:Arial Black,PingFang SC,Mircrosoft YaHei,Arial" y="39.0" x="-22.7">True</tspan></text></g><g id="shape17" transform="translate(871.240000,1195.999500)"><path d="M7.0,.0L457.6,.0C461.4,.0,464.6,3.1,464.6,7.0L464.6,128.6C464.6,132.5,461.4,135.6,457.6,135.6L7.0,135.6C3.1,135.6,.0,132.5,.0,128.6L.0,7.0C.0,3.1,3.1,.0,7.0,.0z" fill="#90d6ab" stroke="#101843" stroke-width="1" fill-rule="nonzero"/><text style="fill:#191919;font-family:Arial Black,PingFang SC,Mircrosoft YaHei,Arial;font-size:16.00pt" xml:space="preserve"><tspan style="font-family:Arial Black,PingFang SC,Mircrosoft YaHei,Arial" y="47.0" x="10.2">print("Sorry, there's not enough money </tspan><tspan style="font-family:Arial Black,PingFang SC,Mircrosoft YaHei,Arial" y="77.0" x="21.2">left for a strawberry shortcake and a </tspan><tspan style="font-family:Arial Black,PingFang SC,Mircrosoft YaHei,Arial" y="107.0" x="186.8">donut.")</tspan></text></g><g id="shape18" transform="translate(1415.090000,1034.160000)"><path d="M.0,.0L-311.3,.0L-311.3,155.8" stroke="#191919" fill="none" stroke-width="1"/><path d="M-308.3,155.8L-311.3,161.8L-314.3,155.8L-308.3,155.8" fill="#191919" stroke="#191919" stroke-linecap="round" stroke-width="1"/><rect height="27.0" fill="#ffffff" width="55.9" y="-13.5" x="-169.7"/><text style="fill:#191919;font-family:Arial Black,PingFang SC,Mircrosoft YaHei,Arial;font-size:14.00pt" xml:space="preserve"><tspan style="font-family:Arial Black,PingFang SC,Mircrosoft YaHei,Arial" y="8.5" x="-169.7">False</tspan></text></g></g></svg>