<svg height="0"
    xmlns:ev="http://www.w3.org/2001/xml-events" viewBox="0 200 1132 804" width="1132"
    xmlns="http://www.w3.org/2000/svg"
    xmlns:xlink="http://www.w3.org/1999/xlink">
    <defs/>
    <g id="page1" transform="translate(5.5,5.5)">
        <rect height="794" fill="none" width="1123" y="0" x="0"/>
        <path d="M.0,93.0C.0,41.6,118.1,.0,263.8,.0C409.4,.0,527.5,41.6,527.5,93.0C527.5,144.4,409.4,186.0,263.8,186.0C118.1,186.0,.0,144.4,.0,93.0z" fill="#ff9189" stroke="#101843" id="shape1" transform="translate(279.980000,270.125000)" stroke-width="1" fill-rule="nonzero"/>
        <g id="shape2" transform="translate(298.632000,270.124500)">
            <text style="fill:#191919;font-family:Arial Black,PingFang SC,Mircrosoft YaHei,Arial;font-size:19.00pt" xml:space="preserve">
                <tspan style="font-family:Arial Black,PingFang SC,Mircrosoft YaHei,Arial" y="46.5" x="133.6">your_money = 16</tspan>
                <tspan style="font-family:Arial Black,PingFang SC,Mircrosoft YaHei,Arial" y="82.5" x="105.9">pepperoni_price = 11</tspan>
                <tspan style="font-family:Arial Black,PingFang SC,Mircrosoft YaHei,Arial" y="118.5" x="148.9">cake_price = 3</tspan>
                <tspan style="font-family:Arial Black,PingFang SC,Mircrosoft YaHei,Arial" y="154.5" x="143.4">donut_price = 2</tspan>
            </text>
        </g>
        <g id="shape3" transform="translate(543.750000,457.000000)">
            <path d="M.0,.0L.0,66.0" stroke="#191919" fill="none" stroke-width="1"/>
            <path d="M3.0,66.0L.0,72.0L-3.0,66.0L3.0,66.0" fill="#191919" stroke="#191919" stroke-linecap="round" stroke-width="1"/>
        </g>
    </g>
</svg>